<?xml version="1.0" standalone="no"?>
<!DOCTYPE svg PUBLIC "-//W3C//DTD SVG 1.1//EN" "http://www.w3.org/Graphics/SVG/1.1/DTD/svg11.dtd" >
<svg xmlns="http://www.w3.org/2000/svg" xmlns:xlink="http://www.w3.org/1999/xlink" version="1.1">
<metadata>
Created by FontForge 20190801 at Tue Oct  4 06:42:07 2016
 By Unknown
</metadata>
<defs>
<font id="GetSchwifty-Regular" horiz-adv-x="667" >
  <font-face 
    font-family="Get Schwifty"
    font-weight="400"
    font-stretch="normal"
    units-per-em="1000"
    panose-1="0 0 0 0 0 0 0 0 0 0"
    ascent="750"
    descent="-250"
    x-height="463"
    cap-height="995"
    bbox="-57.4605 -418.522 557.556 995"
    underline-thickness="50"
    underline-position="-100"
    unicode-range="U+000D-007A"
  />
<missing-glyph horiz-adv-x="302" 
 />
    <glyph glyph-name=".notdef" horiz-adv-x="302" 
 />
    <glyph glyph-name="NULL" horiz-adv-x="0" 
 />
    <glyph glyph-name="NULL" horiz-adv-x="0" 
 />
    <glyph glyph-name="nonmarkingreturn" unicode="&#xd;" horiz-adv-x="302" 
 />
    <glyph glyph-name="space" unicode=" " horiz-adv-x="302" 
 />
    <glyph glyph-name="d" unicode="d" horiz-adv-x="433" 
d="M236 935q10 0 10 -5l15 -130l-20 -135q24 -15 28 -39t-1 -51t-13.5 -55t-8.5 -50q23 -26 27 -69t-7 -96q-9 -53 -11.5 -110t-3.5 -105t-3.5 -79t-11.5 -31q-2 0 -3 1q-2 2 -2 4q-4 26 -8 45t-9 34t-12 28t-16 28q-4 -25 -7 -39.5t-8.5 -21.5t-14 -9t-23.5 -2.5
t-37.5 -1.5t-54.5 -6q-8 1 -16 5q-7 3 -13.5 7.5t-10.5 12.5q-8 9 -8 22.5t3 26.5q4 15 10 31q-15 32 -34 64.5t-26.5 65.5t4 65.5t56.5 64.5q13 15 18.5 36.5t14.5 39.5t26.5 26.5t55.5 -2.5l55 10l25 240q2 30 4 62t6 58t10 43t15 17zM121 410q-4 0 -10 -11.5t-12 -26.5
t-11 -30t-7 -22q0 -8 -5 -12t-11 -8t-11.5 -8.5t-7.5 -11.5q-4 -23 5 -42.5t20 -42.5q8 -8 12 -9t8 -1q11 0 20 7t20 18q7 7 13 9.5t11.5 3t10 2.5t10.5 10q2 6 4.5 16t4.5 21.5t2.5 21.5t-1.5 16q-6 6 -15 15.5t-18.5 22.5t-17 27.5t-9.5 29.5z" />
    <glyph glyph-name="e" unicode="e" horiz-adv-x="530" 
d="M336 535q30 6 43.5 -10t18.5 -41.5t6 -54t7 -49.5q-5 -8 -4.5 -16.5l1 -17t-2 -16t-14.5 -11.5t-35.5 -3.5t-64.5 6.5q-8 -11 -16.5 -23t-20.5 -19.5t-27 -7.5t-36 13l-55 -45l35 -195l95 -10l80 5l25 110l30 -15l30 50l-25 -165q-28 -19 -48 -30t-35 -15.5t-27 -1.5
t-25 12q-47 -19 -74 -27.5t-41 -10t-18.5 1t-6.5 6.5q-2 43 -12.5 83.5t-25.5 74t-32.5 59t-34.5 38.5q-6 4 -5.5 12t4 17.5t9.5 20.5t12 20q-2 30 -10.5 62t-9 62.5t14.5 57.5t60 48q-13 22 -6 33.5t26.5 17t46.5 6.5t53 3zM246 490q-23 0 -37 -4.5t-18 -15.5l-35 -35
l-50 -35l15 -55q28 -4 57.5 -8.5t56.5 -3t50.5 12.5t40.5 39q-17 7 -23.5 19t-7 25.5t3 28t7.5 27.5q-19 0 -34 2.5t-26 2.5z" />
    <glyph glyph-name="g" unicode="g" horiz-adv-x="525" 
d="M126 565q9 -2 13 -19t10.5 -36.5t20 -34t41.5 -10.5q13 0 27.5 -17t24 -39t10.5 -43.5t-12 -30.5q-11 -8 -7 -14.5t15 -14.5t23.5 -18t18.5 -23q6 -17 5 -37t-5 -39.5t-8.5 -37.5t-6.5 -31q19 -15 23.5 -42.5t9.5 -64t18 -80.5t49 -93q13 -17 4.5 -36t-27.5 -36.5
t-43.5 -33t-43.5 -24.5q-28 -15 -61 -25t-66.5 -12t-66.5 4t-61 23q-26 15 -39.5 44.5t-20.5 55.5q-2 19 -4 43t0 45.5t9.5 36.5t24.5 15q28 0 39.5 -11.5t11 -27.5t-10.5 -33t-25 -28q-18 -12 -14.5 -25.5t18.5 -24t37 -16.5t42 -4t34 13.5t13 36.5q-1 10 7.5 10.5t23 -3.5
t32.5 -10.5t34.5 -11t29.5 -4.5t18 9q15 21 13 47t-11.5 54.5t-21 58t-15.5 55.5q-28 -15 -44.5 -15t-28.5 8.5t-22 22t-25 24.5q-13 7 -31 9.5t-36.5 7t-36.5 16t-31 37.5q-2 19 7 41.5t21 42.5q14 23 32 46q4 37 0 64t-9.5 49.5t-8.5 44t3 47.5q15 53 38 74t42 21z
M161 425q-21 -2 -26.5 -18t-5 -38t3 -46t-1.5 -43q-2 -19 -11 -41t-15.5 -43t-6 -39t17.5 -27q11 -8 23.5 -5t24.5 11.5t21.5 20.5t15.5 23q7 15 8 31t-2 31.5t-7.5 31.5t-8.5 31q-2 15 -1 35.5t-0.5 39.5t-7.5 32t-21 13z" />
    <glyph glyph-name="h" unicode="h" horiz-adv-x="587" 
d="M86 975q13 0 13.5 -8.5t-3.5 -20.5t-7.5 -26t2.5 -25h5q19 0 23.5 -26t2.5 -64t-6.5 -83t-4.5 -82l20 -105q9 -2 18.5 -6t19.5 -7t20.5 -4.5t21.5 2.5q22 37 35 51.5t19 15t8 -10t3 -25t3 -29.5t8 -23t18.5 -6t35.5 22q30 -29 44 -46t19 -26.5t5 -15t2.5 -10t10.5 -11.5
t29 -21q11 -13 5 -26.5t-18 -30t-23 -37t-9 -46.5q-13 15 -16 17t-1 -2t7.5 -9.5t9.5 -5.5q8 -8 19 -22t26 -33q24 -30 33 -66.5t7.5 -68.5t-10.5 -53.5t-20 -21.5q-2 -4 -12 -5t-21 0.5t-18.5 5t-3.5 9.5q2 17 8 36t9 37t0.5 34.5t-17.5 27.5q-15 4 -27.5 15t-12.5 30
q-8 38 -17 75t2 75q-8 28 -23.5 53t-35 40.5t-41 18.5t-40.5 -12q-24 -2 -39.5 -27t-22 -64t-4.5 -87t11 -97q4 -24 11 -47.5t13.5 -44.5t11 -37.5t3.5 -27t-10 -13.5t-29 5q-9 6 -19.5 15.5t-21 12t-22 -6.5t-22.5 -41l-5 120l15 140l-10 10q-15 22 -15 50
q-11 15 -18.5 29.5t-11.5 25.5q-6 24 -2.5 58t9.5 66q7 37 18 76q2 32 -2 71.5t-9.5 80t-11 78t-7.5 65.5q-4 43 -6.5 67.5t-1 37.5t10 18.5t27.5 11.5q11 4 21 7t14 3z" />
    <glyph glyph-name="i" unicode="i" horiz-adv-x="297" 
d="M86 920l50 -20q15 -11 24.5 -26t6.5 -39t-21.5 -61.5t-59.5 -93.5q-20 14 -36 29q-14 13 -25.5 27.5t-13.5 28.5q-4 15 -0.5 34t9.5 36q6 19 16 40q-6 15 -14 30t-9.5 30t8.5 30t40 30zM136 535l-20 -160q14 -17 26 -34q11 -14 20.5 -31t13.5 -30q5 -25 2 -58.5t-9 -65.5
q-7 -37 -18 -76q-7 -41 -6 -73t5.5 -56t8.5 -40t2.5 -26t-12 -13.5t-35.5 -2.5q-21 0 -27.5 2.5t-6.5 13t4.5 31.5t6.5 59l-25 120q-8 2 -15 4.5t-9 14t4 35t25 66.5l-5 253q-5 -15 -11 -25q-5 -8 -12.5 -13.5t-16.5 0.5q-11 6 -16.5 18.5t-6 28t2 33.5t7.5 36q11 41 33 89
q9 -6 19.5 -15.5t21 -12t22 6.5t22.5 41z" />
    <glyph glyph-name="j" unicode="j" horiz-adv-x="447" 
d="M104 854q19 0 35 -13t20 -47l45 -15q17 -39 14.5 -57t-14.5 -27t-29.5 -15t-30.5 -21q-17 -12 -30 -18q-11 -5 -22 -5.5t-13 13.5q-3 14 -8 33.5t-10 39.5q-6 22 -12 47q-17 9 -17 23t10.5 27t27.5 23t34 12zM143 582q15 -13 24.5 -22t16.5 -25.5t14 -46.5t16 -84
q14 -16 26 -32q11 -14 20.5 -29.5t13.5 -28.5q5 -25 4.5 -64t-3.5 -77q-4 -44 -11 -93q4 -39 8.5 -73t7.5 -66.5t4 -65.5t-3 -70q-8 -51 -26.5 -88.5t-41.5 -60t-46.5 -28.5t-40.5 7q-13 9 -27 33t-28.5 65.5t-29.5 101t-30 140.5q7 21 21.5 13.5t30 -35.5t29 -72t19.5 -96
q2 -17 10.5 -26t21.5 -13t28 -3.5t30 2.5q1 65 -2 125q-1 25 -3 51.5t-5.5 51t-8.5 46t-11 36.5l-25 120l-15 7.5t-9 15t4 34t25 63.5q3 38 -2.5 55t-13.5 24t-16.5 9t-12 8.5t-0.5 22t18 50.5q-11 6 -16.5 14t-6 17t2 19t7.5 20q11 23 32 48z" />
    <glyph glyph-name="l" unicode="l" horiz-adv-x="462" 
d="M171 920q17 -17 14.5 -30.5t-11.5 -28t-18 -32.5t-5 -44q4 -19 17.5 -40.5t17.5 -44.5q2 -11 -5.5 -18.5t-16 -14.5t-14 -16t0.5 -24q2 -9 -5 -31t-11.5 -53.5t-2 -70.5t23.5 -82q2 -4 4.5 3.5l5.5 16.5l5.5 16.5t4.5 3.5q13 -17 13.5 -35.5t-6 -37.5t-17.5 -38.5
t-20 -38.5q-19 -46 -25 -78t-5 -54t7 -37.5t11.5 -29t8.5 -27.5t-2 -34q-2 -11 8 -9.5t23.5 7.5t26.5 12.5t17 4.5q11 -11 12 -21.5t6 -18.5t22 -14.5t60 -10.5q19 -19 35 -27.5t23 -15t1.5 -15t-29.5 -27.5q4 -32 -4 -42.5t-22.5 -6.5t-33 18t-35.5 31q-14 -23 -31.5 -20
t-34.5 15q-19 14 -39 40q-39 -15 -72 -23t-50 -2.5t-15 26.5t32 64q0 17 2 35.5t3.5 36.5t1 35.5t-6.5 32.5t-11.5 28.5t-6 27.5t5 29.5t22.5 34.5q11 11 15 9t3.5 -4.5t-3.5 2t-5 28.5q4 25 -2 37t-15 18t-17.5 9.5t-10.5 10.5t6.5 21.5t33.5 43.5q7 9 4 23t-7.5 30.5
t-6 34.5t9.5 37q4 17 6.5 38.5t6 46t10 52.5t17.5 58q0 53 11.5 87t25.5 55q17 24 38 38z" />
    <glyph glyph-name="k" unicode="k" horiz-adv-x="542" 
d="M126 945q21 -13 25.5 -36.5t0 -52t-14 -60t-16.5 -61.5q15 -11 23.5 -26.5t10.5 -32.5t-3 -34t-16 -32q-9 -11 -13.5 -29.5t-4 -35.5t7.5 -28t20 -7q22 6 36.5 23t25.5 35t20.5 32.5t22.5 14.5l15 -20q31 54 53.5 87t38.5 52t27.5 27t20.5 11.5t17 5t18 7.5l-60 -100
q-17 -21 -36 -39.5t-35.5 -39t-27.5 -45t-11 -56.5q-2 -15 -17 -25.5t-33 -22.5t-33 -27.5t-17 -39.5q0 -29 13 -46.5t30.5 -30.5t36 -24.5t30.5 -28.5l40 -125q14 13 21 -2t10.5 -47t3.5 -76v-91t0.5 -92t4.5 -77q2 -15 -1.5 -24.5t-9.5 -11t-14 6.5t-15 29l-30 105
q-8 26 -17.5 61.5t-17.5 67.5q-10 37 -20 76q-8 34 -15.5 67t-18 63t-24 55.5t-32.5 44.5l-15 -30l-10 15q-4 -79 -22 -143.5t-33 -106.5q-2 -23 -6 -41q-4 -15 -11 -26.5t-18 -7.5q6 32 9.5 67.5t7.5 75t10.5 82.5t17.5 90l-20 40l20 140q1 9 -2 3.5t-9 -18t-13.5 -29
t-14.5 -30t-13 -20.5t-8 -1q-11 28 -11.5 56t4.5 55t13 53.5t14 50.5q3 10 6 35t7 57.5t8 69.5t9 72t10 64.5t10.5 46.5t11.5 19t13 -19l15 35v0z" />
    <glyph glyph-name="m" unicode="m" 
d="M482 930q4 -24 -3 -63.5t-14 -80t-8 -75.5t14 -50q6 -35 7 -69t0 -69t-2.5 -70t0.5 -71q0 4 8 3.5t8 -7.5q2 -23 1 -55t-2 -66.5t-0.5 -66.5t6.5 -54q0 -11 3 -7.5t7 7.5q12 7 21 -0.5t5 -18.5q-2 -29 -7 -47t-11.5 -34.5t-12.5 -35t-10 -47.5q4 7 15.5 9t15.5 -9
q6 -14 7.5 -29t1.5 -31t-0.5 -32t1.5 -31q4 -35 4.5 -73.5t16.5 -73.5q4 -17 3.5 -36.5t-19.5 -26.5q-8 -2 -12 1t-5.5 8t-2 11.5t-0.5 11.5q-2 -4 -3.5 -9.5t-4 -10t-7 -7.5t-11.5 -1q-4 7 -4.5 14.5t0 15.5t1 16.5t-1.5 17.5q-4 42 -15.5 82.5t-15.5 81.5q-6 38 -16 75.5
t-20 75.5t-18.5 75.5t-12.5 75.5q2 5 1.5 11.5t-0.5 12.5t1.5 12t7.5 9q6 0 11 -4t8.5 -7.5t6.5 -4t5 6.5q0 59 -9 114.5t-17 114.5q-8 -52 -16.5 -103t-24.5 -103q-16 -48 -24 -96t-12 -96q-4 -24 -1.5 -45.5t6.5 -45.5q2 -5 0 -12t-6.5 -12.5t-12 -8t-17.5 0.5
q-10 7 -14.5 16t-6.5 19.5t-2.5 21t-2.5 21.5q0 10 -5.5 6.5t-9.5 -6.5q-16 -11 -32 -0.5t-20 27.5q-8 24 -7 48t5.5 48t10 48t7.5 48q-20 35 -33 74t-29 77q-10 17 -14 34.5t-6.5 35.5t-5.5 36t-10 35v-187q4 -76 2 -155.5t-18 -155.5q0 -7 -2 -14.5t-6.5 -13.5t-11 -8.5
t-16.5 0.5q-2 -17 -0.5 -33.5l3 -33t1.5 -33t-4 -33.5q-4 -10 -15 -6t-16 11q-11 -38 -12.5 -74.5t-12.5 -71.5q-2 -5 -3.5 -11.5t-3.5 -11.5t-6.5 -8t-12.5 -1q-12 11 -8.5 23.5t3.5 26.5q4 31 5.5 64t9.5 64q4 20 13.5 38.5t2.5 39.5q-16 3 -26 12.5t-10 23.5
q-2 22 -5.5 48.5t-5 53.5t0.5 52.5t10 46.5q2 12 15.5 7t28 -12.5t24.5 -11t4 12.5q15 150 0 301q-8 3 -14.5 10t-6.5 17q-8 38 -3.5 77t24.5 74q2 7 7.5 13t12.5 10t15 4.5t16 -4.5q2 -2 3 -6.5t2 -7.5t2.5 -2.5t3.5 7.5q11 7 20.5 -3t9.5 -20q8 14 14.5 25t6.5 25
q-4 11 -6 21.5t6 24.5q12 20 28 44t39 38q6 3 9 1t4 -6.5t0 -11t-3 -11.5q-4 -17 -12 -34t-16.5 -34.5t-14 -35.5t-3.5 -37q4 -21 11 -40.5t15 -39.5t16.5 -39.5t14.5 -40.5q12 -36 12.5 -72.5t-2.5 -73.5t-6 -73.5t1 -72.5q5 18 14 31.5t17 33t14.5 49.5t7.5 82q8 39 18 82
t22.5 86.5t26.5 85.5t29 80q10 20 14.5 41.5t6.5 43t2.5 44t2.5 44.5q2 10 5 21.5t9 21t15 15.5t23 6z" />
    <glyph glyph-name="o" unicode="o" horiz-adv-x="392" 
d="M204 463q12 0 19.5 -9t4.5 -33q0 -20 16.5 -35.5t36.5 -30t38.5 -30t21.5 -34.5q2 -16 -3.5 -40.5t-11.5 -47.5q-8 -27 -17 -57q12 -12 14 -29.5t-2.5 -39.5t-12.5 -46t-16 -49q-11 -45 -32.5 -65t-39.5 -20q-11 0 -16 15t-12 33t-20.5 32t-40.5 11q-32 -1 -46 12t-21 38
t-11 59.5t-14 76.5q-5 25 -18.5 52t-19 53t4.5 51.5t52 47.5q28 17 54 29t47 31q24 25 45 25zM220 302q-6 0 -11.5 -8.5t-11 -20l-11 -23t-12 -17t-14 -2.5t-16.5 21q-8 13 -9 2t2 -32.5t7 -46.5t7 -39t2.5 -33.5t0.5 -37t7 -29t23 -9.5q39 0 50 34.5t-22 95.5
q-6 11 -4 24.5t7.5 27.5t12 27.5t10 25.5t1 21t-14.5 14q0 5 -4 5z" />
    <glyph glyph-name="n" unicode="n" 
d="M461 795q23 -19 36 -44t24 -51q8 -11 6 -22.5t-6 -22.5q7 -34 13.5 -69t7.5 -64.5t-5.5 -50t-25.5 -26.5q-15 -4 -14.5 -19t7 -34.5t14.5 -40.5t8 -36q2 -23 -6.5 -43.5t-19 -41.5t-20 -42t-9.5 -43q0 -26 5 -58t10.5 -64.5t8 -64.5t-3.5 -58q-4 -15 -20 -25.5t-35 0.5
q-11 6 -13.5 -9.5t-2 -38t1 -45.5t-5.5 -32q-19 -4 -29 10.5t-6 29.5q3 29 -8 55.5t-27.5 50.5t-34.5 45t-31.5 38.5t-17.5 31.5t9 24q17 13 12.5 32.5t-18 41t-30.5 43t-24 38.5q-19 11 -36.5 26.5t-30.5 38t-18.5 53.5t0.5 72q-8 -60 -16 -122.5t-4 -122.5q0 -9 2.5 -9.5
t6 2.5t8 7.5t8.5 4.5q7 -4 9.5 -10t2.5 -13t-1 -14t-1 -13q-11 -60 -26 -113t-19 -102q-4 -75 -11.5 -104t-16 -30.5t-16 15.5t-11.5 34q-4 13 -0.5 36.5t8.5 49.5t9.5 51.5t2.5 42.5q-4 24 -13 55t-18.5 59t-16.5 49t-7 27q-4 11 5 19.5t20 0.5q4 -4 7 -7.5t3 7.5
q4 24 3.5 43t-2 37t-2.5 37t1 43q4 4 10 4.5t10 0.5q0 25 -7.5 54t-17 58.5t-17 58.5t-7.5 54.5t10.5 46t38.5 33.5q-1 52 1 80t7 37t12 3t15 -20t17 -33.5t18 -36.5q30 -83 57.5 -163t42.5 -167q7 -30 31.5 -57t51.5 -53.5t48.5 -54.5t23.5 -60q4 28 17 51t22 48.5
t6.5 58.5t-30.5 82q-6 9 -3 18.5t10 18t16 15.5t17 13q-28 84 -32 134t6.5 70.5t31.5 13t44 -37.5q2 21 -3.5 40t-13.5 37.5t-16 37.5t-12 40q-4 8 -3.5 19t8.5 11h10z" />
    <glyph glyph-name="p" unicode="p" horiz-adv-x="419" 
d="M46 535q2 -28 5.5 -48t9.5 -35.5t13.5 -28.5t16.5 -28q4 37 8 52.5t17 19.5t39.5 3t75.5 5q9 -1 17 -4q16 -5 28 -16q8 -11 7 -25t-5 -26q-4 -14 -12 -29q15 -34 34.5 -67.5t27.5 -67t-3.5 -66t-58.5 -64.5q-11 -15 -16.5 -36.5t-15 -39t-28 -25t-55.5 5.5l-50 -15
l-30 -240q0 -32 -1.5 -67t-6 -62t-13.5 -41t-24 -5l-10 130l15 135q-23 17 -25.5 42t3 52.5t14 55t8.5 50.5q-23 23 -29.5 65.5t4.5 99.5q9 52 11.5 109t3.5 103.5t3.5 77t11.5 30.5h10zM181 335q-8 0 -17.5 -8.5t-17.5 -16.5t-14.5 -10t-12 -3.5t-10 -4.5t-8.5 -12
q-4 -6 -7.5 -16t-5 -21.5t-1.5 -21.5t4 -16t12.5 -15.5t17.5 -22.5t17.5 -27.5t12.5 -29.5q2 -9 8.5 -0.5t13.5 24.5t12.5 34t5.5 27q0 7 5.5 11.5t12.5 9t13.5 10t8.5 14.5q0 23 -9.5 42t-20.5 38q-4 8 -8 11.5t-12 3.5z" />
    <glyph glyph-name="q" unicode="q" horiz-adv-x="647" 
d="M316 635q5 0 5 -5q17 0 23.5 -11.5t16.5 -29.5t31.5 -39t68.5 -40q11 -29 12 -52.5t-3.5 -45.5t-13.5 -43.5t-17 -45.5t-13.5 -53t-4.5 -65q4 -26 -5 -51t-20 -44q19 -15 34 -23.5t11 -16.5q-6 -15 1 -27.5t21 -23.5t31.5 -21.5t32.5 -21.5t24 -23.5t5 -27.5
q-30 4 -54.5 19.5t-50.5 30.5q-49 26 -68 48t-27 37q-30 -26 -60 -48t-45 -37q-21 -23 -39 -36t-31 -14t-20 12t-5 43q0 19 -10.5 31.5t-26.5 22.5t-34.5 18t-35 17.5t-29 21t-14.5 29.5q-2 23 5 59.5t16 72.5q11 41 24 88q-17 11 -19.5 35.5t2.5 56.5t14.5 70.5t17.5 77.5
q6 22 13.5 30.5t15.5 7.5t17 -8.5t18 -15.5t18 -14t18 -5q13 4 20 7t17.5 8.5t28.5 13.5t54 21q11 4 18.5 5t11.5 5zM271 535q-19 0 -40.5 -13t-42 -29.5t-38.5 -33.5t-29 -24q-2 -13 -1.5 -39.5t1.5 -55t1.5 -54t-1.5 -36.5q-4 -34 8.5 -64.5t31.5 -60.5q15 -15 30 -15
q11 0 25.5 10t29.5 25l10 10q-8 7 -22.5 19.5t-29 26.5t-25 28.5t-8.5 25.5q6 17 4 27.5t-5 17.5t-3 10t9 5l22 -18q9 -8 19.5 -16t18.5 -16q11 -15 20.5 -33.5t24.5 -26.5q22 -8 30 -15q6 9 15 27t18.5 38t17 38t9.5 27q-19 22 -29 54.5t-17 63t-14 55t-20 32.5q-4 4 -8 7
t-12 3z" />
    <glyph glyph-name="r" unicode="r" horiz-adv-x="430" 
d="M46 810q4 -28 7 -57t6.5 -56t8.5 -49.5t13 -37.5q8 34 25.5 75.5t59.5 94.5q7 -6 11.5 -14t10.5 -14t16.5 -8t31.5 6q9 -1 17 -4q16 -5 28 -16q5 -11 4.5 -25t-3.5 -26q-4 -14 -11 -29q15 -34 33.5 -67.5t26 -67t-3.5 -66t-56 -64.5l-115 -95q21 -24 40.5 -48.5t32 -48.5
t13.5 -47.5t-16 -45.5q16 -20 29 -38q11 -16 21.5 -34t14.5 -33t2 -35t-5 -42.5t-6 -46.5t-1 -46q2 -23 7.5 -42.5t11 -37.5t9.5 -34t2 -31q-4 -17 -11 -23.5t-15 -8.5q-9 -2 -19 2l-40 275q0 -2 -6 7.5t-15.5 26t-21 37.5t-22.5 44q-8 19 -15.5 36.5t-13.5 32t-9.5 25
t-1.5 16.5q2 30 -0.5 53t-5.5 39q-4 18 -9 33l-30 -240q0 -32 -1.5 -67t-6 -62t-13.5 -41t-24 -5l-10 130l15 135q-23 17 -25.5 42t2.5 52.5t12.5 55t5.5 50.5q-19 23 -25 65.5t5 99.5q9 52 11.5 109t3.5 103.5t3.5 77t11.5 30.5h5zM186 610q-8 0 -17.5 -8.5t-17.5 -16.5
t-10.5 -16t-4 -17t-3 -18.5t-7.5 -18.5q-2 -6 -8.5 -10t-12.5 -7.5t-9.5 -7.5t0.5 -10t12.5 -15.5t17.5 -22.5t17.5 -27.5t12.5 -29.5q2 -9 8.5 -0.5t13.5 24.5t12.5 34t5.5 27q0 7 -4 14.5l-8 15t-7 15t-1 15.5q2 11 9 19t13.5 15t10 14.5t-2.5 16.5q-4 8 -8 11.5t-12 3.5z
" />
    <glyph glyph-name="s" unicode="s" horiz-adv-x="563" 
d="M371 415q15 0 22.5 -7.5t22.5 -7.5q15 -2 18 -8.5t-1.5 -13.5t-15 -12.5t-21.5 -5.5q-9 -8 -19 -13q-8 -5 -17 -8.5t-14 -3.5q-30 7 -60 0q-9 0 -20 -3t-20.5 -7t-17.5 -7t-12 -3q-8 4 -21 6t-24 -6q-8 -6 -10 -9t-2.5 -6t-3 -6t-9.5 -9q-4 -2 -7 -0.5t-5.5 3t-5.5 3
t-7 -0.5q-8 -8 -12 -17t-8 -13q-2 -2 1.5 -9.5t10 -16.5t15.5 -17t18 -12q30 4 56 10t49 -5q4 -4 20.5 -5t24.5 -5q15 -8 24.5 -13.5t20.5 -16.5q11 -4 18.5 -14t11.5 -21q8 -8 6 -21t-6 -24q-4 -8 -12.5 -13.5t-12.5 -16.5q-4 -8 0 -17.5t0 -17.5q-8 -23 -25 -40t-40 -25
q-6 -2 -12 -0.5t-13 3t-13 3t-12 -0.5q-8 -4 -12 -10.5t-8 -13.5t-8.5 -13t-11.5 -8q-6 -2 -11.5 0t-11 5t-11 5t-11.5 0q-42 -11 -79 -18t-56 8q-2 2 -4 -1.5t-4 -8.5t-5 -8.5t-7 -1.5q-4 0 -2 8t2 12q2 6 5.5 15t7.5 18.5t8.5 17t8.5 9.5q9 2 18.5 -2.5t18.5 -9.5t17 -8.5
t16 0.5q4 4 5 9.5t5 5.5q6 6 12.5 7.5t13.5 1.5t14 -0.5t15 1.5q8 4 15 8t15 12q7 4 10.5 15t14.5 15q8 4 15 4.5t15 0.5q17 4 30.5 7t20.5 10t6 20.5t-12 37.5q-4 9 -8.5 13.5t-10.5 6.5t-14 2.5t-17 2.5q-15 4 -27.5 4t-27.5 -4q-23 -6 -41.5 -5t-37.5 9t-39.5 23
t-46.5 38q-4 4 3.5 16.5t11.5 23.5q8 19 16.5 39t23.5 31q8 8 20 7.5t20 7.5q11 8 17.5 22t17.5 18q8 4 15 4.5t15 0.5t15 -2.5t15 -2.5q11 4 18 15t22 15q9 4 19.5 2t20.5 -4t20.5 -3t19.5 5q30 22 45 15z" />
    <glyph glyph-name="t" unicode="t" horiz-adv-x="508" 
d="M261 955q17 -17 13 -42t-15 -53t-21.5 -57t-6.5 -53q2 -11 6 -15.5t9 -7t9 -7t6 -15.5t-3 -25.5t-10.5 -30.5t-9 -32.5t2.5 -31.5q7 -21 2 -45.5t-13.5 -46.5t-15.5 -38t-3 -20q9 -8 20 -5.5t20.5 7.5t17.5 10t12 3q5 -6 6.5 -13t-0.5 -13q-2 -7 -6 -14q-4 -11 4.5 -8.5
t24 5.5t35.5 1t41 -23q19 -19 34.5 -27.5t22 -15t1 -15t-27.5 -27.5q4 -32 -4 -43t-22.5 -7.5t-33 17.5t-35.5 33q-14 -23 -32.5 -20t-35.5 15q-20 14 -42 40q5 -48 4 -88q-1 -35 -7 -66.5t-22 -40.5q0 -19 3.5 -36.5t6.5 -33t2.5 -28.5t-7.5 -22q-14 -24 -19 -40t-6 -29
t-0.5 -26t-3 -29.5t-12.5 -39t-29 -56.5q-11 16 -15 24.5t-3.5 14t3.5 11t7 15.5t6.5 27.5t1.5 47.5q0 17 2 35.5t3.5 36.5t1 35.5t-6.5 32.5t-11.5 28.5t-6 27.5t5 29.5t22.5 34.5q9 11 12.5 24.5t3.5 30t-2 36.5t-4 44q-2 6 -12 7t-22 2.5t-23.5 5.5t-17.5 15
q-2 7 -12.5 11t-21.5 6.5t-19.5 6t-6.5 11.5q0 11 7.5 25t22.5 10q13 -6 19.5 -5t10.5 5.5t6.5 10t8.5 9.5q11 4 27.5 6.5t27.5 13.5q7 9 4 8l-7.5 -2.5t-6 2t9.5 22.5q4 19 6.5 41t6 47.5t10 53.5t17.5 58q0 51 13 96t29 80q18 40 43 74z" />
    <glyph glyph-name="u" unicode="u" horiz-adv-x="503" 
d="M391 565q8 0 14.5 -3t10.5 -7q9 -13 10.5 -27t-1.5 -28.5t-7.5 -29.5t-6.5 -30q-4 -13 -2.5 -25.5t3.5 -24t1.5 -23t-7.5 -22.5q-4 -11 -10.5 -20t-13 -17.5t-11.5 -17.5t-5 -20q4 -17 1.5 -22t-6 -7.5t-5 -6.5t4.5 -19q0 -8 9 -16.5t19 -17t16.5 -15.5t0.5 -11
q-23 -14 -31.5 -21t-10.5 -11.5t-1.5 -10t-4.5 -15t-18.5 -26.5t-43.5 -46q-23 20 -35.5 22t-19 -6t-8 -23l-3 -30t-3.5 -26t-9 -11t-20.5 14t-36.5 50q-13 7 -26 4t-26.5 -8.5t-26.5 -7.5t-26 7q-13 17 -17 36t-2.5 39.5t6 40.5t8.5 39q-15 -8 -28 1t-17 24q-4 30 0.5 62
t19.5 58q9 9 19 36.5t19.5 59t17.5 60t14 39.5q6 13 8.5 10.5t5.5 -9t7.5 -11t13.5 4.5v-5q-6 -28 -14.5 -54.5t-17 -53.5t-15 -54.5t-8.5 -57.5q0 -13 5 -11.5t12 11t14.5 25t13.5 30.5q16 2 17.5 -12.5t-3.5 -37.5t-12 -51t-7.5 -52.5t10 -40.5t40.5 -16q17 -15 38 -12
t41.5 18.5t36.5 40.5t24 53q-11 38 -3.5 75t18.5 75q0 15 12.5 28t27.5 17q15 11 17 27.5t-2 34.5t-9.5 37t-5.5 36q-4 8 7.5 11.5t22.5 3.5z" />
    <glyph glyph-name="v" unicode="v" horiz-adv-x="382" 
d="M266 640q4 0 10.5 -8t14.5 -27q7 -47 9 -81.5t1 -64t-3 -57.5t-2 -62q-11 -8 -19 -29t-12.5 -49t-6.5 -58t-2 -54q4 -24 -0.5 -38.5t-13 -23.5t-19.5 -14t-22 -9t-19.5 -9.5t-10.5 -15.5q2 -38 1.5 -63t-2.5 -41.5t-4.5 -25.5t-4.5 -15q-9 11 -16.5 11t-13 3.5t-8 17.5
t-2.5 53q-16 -4 -28 4.5t-20 23.5t-12 35t-5.5 39t0 34.5t5.5 23.5l-15 125q-4 36 -16.5 75t-21 76.5t-6 71t28.5 57.5q-15 42 -12.5 59.5t17.5 25.5l30 -100l20 -90l40 -340q0 17 8 23.5t19 11.5t21.5 11.5t16.5 23.5q7 21 9 52t1 63.5t-3 61t-2 43.5q9 19 17.5 12.5
t15 -17.5t11 -17.5t6.5 12.5q0 7 -3 16.5t-6 24.5t-4 37.5t3 56.5q4 53 11.5 89t18.5 36z" />
    <glyph glyph-name="w" unicode="w" horiz-adv-x="538" 
d="M441 930q19 0 26.5 -15t3.5 -30q-4 -13 -6.5 -38t-4.5 -52.5t-3 -53.5t-1 -41q-4 -26 -4.5 -55.5t-0.5 -59.5q0 -6 -1 -13.5t-4.5 -14t-9.5 -10.5t-15 -2q8 -30 19 -60t11 -60q2 -8 0.5 -15.5t-6 -12.5t-11 -6.5t-13.5 4.5q-4 -42 -2 -85t2 -85q0 -6 0.5 -13t0 -13.5
t-2.5 -11.5t-8 -7q0 13 -1 7.5t-1.5 -14t-1.5 -12t-1 13.5q5 0 5 5v-5q-4 -26 -4 -54.5t-11 -50.5q-6 -28 -3 -56t8.5 -56.5t9.5 -56.5t0 -56q-15 0 -26 7t-19 18q-8 21 -10 42t-2.5 43t-3 43t-9.5 42q-10 27 -20 44t-19.5 28.5t-18 20t-16.5 20t-14.5 28t-11.5 44.5
q4 -28 5.5 -61t0.5 -66t-5 -65t-11 -58q-8 -19 -11.5 -44t-4 -51t2 -51t8.5 -44q2 -4 2.5 -10.5t-1 -13t-5.5 -11.5t-11 -5q-23 15 -36 38.5t-24 46.5q-6 7 -5 14.5t2.5 15t2.5 15t-5 15.5q-8 -4 -14.5 -6.5t-10.5 1.5q-3 -4 -3 4.5t1 23t2 33t2 35.5t0.5 29t-2.5 15
q-9 11 -19 19.5t-18 17t-13 18.5t-5 25q0 9 -0.5 31.5t0.5 47t4 45t11 26.5q4 32 2.5 46.5t-5 26t-8.5 26t-9 46.5q-6 -2 -12 -6.5t-13 -8.5t-13 -5t-12 5q-15 30 -14.5 63t4.5 67q4 11 4 24t1 25t5 22.5t15 18.5q8 4 11 10.5t-1 14.5q-19 45 -20 90t-5 90q-2 7 0.5 13.5
t6.5 9.5t9 3t9 -6q9 -17 13.5 -34.5t7 -36t4 -37t5.5 -37.5q17 8 25 0q6 -13 6.5 -27t-1 -28t-3.5 -28t-2 -27q22 -8 30 -30q15 -75 15 -153v-157q0 -4 -0.5 -12.5t-1 -16.5t-0.5 -12.5t2 1.5q15 38 27.5 77.5t27.5 77.5q0 19 -3.5 38.5t-7 39.5t-4.5 40.5t5 41.5
q0 9 4.5 18.5t11.5 16.5t16 9t18 -4q4 11 6.5 30t13.5 30q6 7 14 8t15.5 -3.5t12.5 -12.5t3 -17q-8 -42 -3.5 -82.5t8.5 -82.5q11 -53 24 -103t21 -107q4 34 7 67.5t3 67.5q-2 -3 -0.5 5.5t6 23t10.5 32t11.5 34t9 29t3.5 16.5q0 32 -10.5 48t-22.5 29.5t-20 29.5t-2 48
q26 2 38 30.5t16.5 67t4 78.5t1.5 64q0 11 5.5 8t24.5 -3q2 -4 2.5 2.5t1 16t1.5 18t5 8.5z" />
    <glyph glyph-name="x" unicode="x" horiz-adv-x="623" 
d="M371 655q14 -25 14.5 -37t-6.5 -17.5t-18 -6t-21.5 -3t-16.5 -9t-2 -22.5q2 -11 -1.5 -18.5t-8.5 -13.5t-8.5 -12.5t-1.5 -15.5q2 -11 4 -16.5t5 -11t6.5 -14.5t9.5 -28q9 -26 1 -44.5t-20 -32t-22 -24t-4 -19.5q6 -14 9.5 -19.5t7 -8t8.5 -3.5t13.5 -5t22 -14t34.5 -30
q21 -21 22.5 -29.5t-4.5 -11.5t-14.5 -2.5t-8.5 -1.5q0 -17 12 -30t29 -24.5t35 -23.5t29 -27q24 -28 42.5 -44t26 -25.5t1.5 -17t-30 -18.5q2 -26 -5 -31t-20.5 7t-33 39t-41.5 65q-19 4 -43 33t-46 63q-26 40 -51 89q4 -40 2 -67q-1 -12 -3.5 -21.5t-7.5 -15t-12.5 -5.5
t-18.5 9q-2 -11 1.5 -28t6.5 -32t3.5 -24.5t-6.5 -5.5q-21 4 -30.5 -7t-15 -29.5t-9 -42.5t-10.5 -46q-4 -9 -7 -21t-8.5 -22t-13.5 -15.5t-21 -1.5q-11 30 -12.5 50t2.5 35q6 15 15 28t18 27t15.5 30.5t6.5 39.5q0 13 3 23.5t4.5 21t0.5 23.5t-8 32q-6 17 -12 33.5t-6.5 27
t7.5 13t31 -8.5q15 -8 16.5 0t-3 24.5t-12 38t-11.5 42.5q0 6 -12 21t-27.5 34.5t-30 39.5t-20.5 35q-4 9 -17.5 27t-28 36t-25.5 33t-9 19q0 8 10.5 5.5t29.5 -25.5q17 -24 25.5 -33.5t14 -12.5t9 -3t11.5 -6q7 -8 28 -28.5t44 -43t42.5 -41t25.5 -22.5q6 -3 6 3.5
t-2.5 16.5t-6.5 22.5t-5.5 22.5t1 16t12.5 4q6 7 5.5 21.5t0.5 29.5t6.5 27.5t22.5 16.5q2 35 15 54.5t27 28.5q17 11 38 12z" />
    <glyph glyph-name="y" unicode="y" horiz-adv-x="483" 
d="M39 642q29 -48 52 -95.5t52 -94.5q16 -9 24 -24t12.5 -31.5t7.5 -33.5t9 -31q16 -15 27 -32t14 -40q1 -6 5 -1.5t8.5 12.5t9 16.5t7.5 11.5q15 5 27.5 19t10.5 33q17 24 39 49.5t43 50.5q3 -17 -0.5 -32t-10 -29t-14.5 -28.5t-15 -30.5q-6 -21 -13 -43.5t-22 -38.5
q-1 -11 -7 -22.5t-5 -27.5q-2 -14 -10.5 -26.5t-17.5 -24.5t-17 -25t-10 -27q-2 -20 -8.5 -39t-19.5 -30q-11 -15 -10 -28t-3 -38l-50 -216q-4 -14 -16.5 -33.5t-28.5 -39.5t-33 -37.5t-30.5 -27t-20.5 -9t-2 17.5q6 21 14.5 41.5t17 40.5t16 41t10.5 43q3 11 8 18t9.5 13
t6 12t-2.5 15q-3 11 2.5 21t13.5 20t15.5 20t8.5 22q0 8 -6 13.5t-11 11.5t-6.5 13.5t7.5 19.5q4 7 9 13t7 12.5t-1 14t-15 17.5q-9 5 -5.5 12.5t13 16t21 17.5t16.5 18q6 13 5 29t-5 32.5t-7.5 33t-1.5 32.5q2 6 -1.5 5.5t-8.5 -2.5t-10.5 -2t-7.5 7q2 20 -4 43t-18 39
q-19 26 -31 54t-20 57q-7 26 -13.5 51.5t7.5 45.5q-2 23 -11 49t-16 52q2 5 1 13t3 9z" />
    <glyph glyph-name="z" unicode="z" horiz-adv-x="648" 
d="M48 800q15 0 36 -10.5t45 -25.5t50 -30.5t50.5 -25t47 -10t39.5 14.5q16 15 38 16t44 -7.5t39.5 -22t25.5 -26.5q8 8 12 4.5t2 -14.5q1 -8 -1.5 -11t-6 -4t-7.5 -1.5t-7 -4.5q-15 -23 -22 -51.5t-11.5 -58t-10.5 -58t-18 -51.5q-2 -6 -6.5 -4t-9.5 5t-10.5 5.5t-9.5 -1.5
q-13 -11 -18 -34.5t-12 -46.5q-4 -14 -6.5 -29.5t-6 -30.5t-9.5 -29t-16 -23q-17 -8 -32.5 -22.5t-24.5 -33.5q-5 -10 -8.5 -21.5t-8 -22t-10.5 -18t-16 -9.5q-6 2 -11 -1.5t-7 -9t-0.5 -12.5t6.5 -13q10 -11 26 -13.5t32 -6.5q18 -4 37 -9t38.5 -8.5t38.5 -4t38 5.5
q9 4 11 12t1 17.5t-3 19.5t-1 18q12 0 25 -11t26 -15q12 -11 24.5 -16.5t25 -9t25 -6.5t25.5 -9q7 -2 9.5 -8t1 -13t-5.5 -13.5t-8 -10.5q-9 0 -18.5 5.5l-19 11t-20 9t-20.5 -0.5q-12 -12 -26.5 -15t-29.5 -4t-30 -2.5t-29 -9.5q-25 -19 -56.5 -14.5t-63.5 20.5
q-15 11 -31 15.5t-32.5 4t-32.5 -4.5t-32 -10q-3 2 -7 0t-7.5 -4.5t-7 -3.5t-5.5 3q-2 19 -14.5 22t-23.5 3q7 15 21.5 19.5t25.5 16.5q10 25 20 51.5t21.5 52.5t25.5 49t33 40q7 7 15 11.5t16.5 8.5t16.5 8.5t15 12.5q7 28 11 57.5l8 59t9.5 57.5t16.5 55q10 42 36.5 66.5
t57.5 40.5q-22 8 -40.5 7t-40.5 3q-26 15 -53.5 20.5t-49.5 -10.5q-17 6 -33.5 5.5t-32 -3.5t-30.5 -8t-30 -9q-4 7 -2.5 16.5t4 19.5t3 20.5t-5.5 19.5q-7 8 -15.5 10.5t-18 1.5t-18 -4.5t-15.5 -7.5q0 23 5.5 47.5t15.5 44.5q3 4 8.5 4.5t10.5 0.5z" />
    <glyph glyph-name="a" unicode="a" horiz-adv-x="337" 
d="M186 790q4 -8 6.5 -18t4 -28t1.5 -45.5t-2 -68.5q6 -17 13 -29.5t12.5 -28t6 -39.5t-6.5 -63q2 -28 2.5 -56t3.5 -52.5t9.5 -43.5t19.5 -28q0 -38 2.5 -69t4 -64t-0.5 -73t-11 -94l-60 105l-15 165l-35 30l-40 -110l-20 -100l-40 -115q-15 8 -17 29t17 66
q-30 28 -33 65.5t6.5 79t23.5 85.5t18 85l15 140q-6 13 -7 33t5 38t21 29t41 5q0 43 5 70t13 45t18 30t19 25zM151 565q-13 -44 -23 -79q-8 -30 -15 -56t-7 -30q6 15 11.5 23t12.5 6.5t16 -13.5t20 -36l-15 90v95z" />
    <glyph glyph-name="f.001" horiz-adv-x="533" 
d="M181 -251q-8 -27 -23.5 -40t-31 -4t-25.5 43.5t-5 102.5q-11 30 -17.5 58t-10 52.5t-6 46t-6.5 38.5q-11 19 -9.5 37t6 34.5t7.5 30.5t-4 23q-25 29 -33.5 43.5t-6.5 21.5t10.5 10.5t17.5 9.5t15 18t2 37q2 24 5 28.5t3.5 2t-3.5 -4.5t-15 9q-17 19 -22.5 34.5t-5 29.5
t6 27.5t11.5 28.5t6.5 32.5t-1 35.5t-3.5 36.5t-2 35.5q-28 43 -28 62t18 24.5t48.5 2t63 -6.5t62.5 -1t46 19q43 -3 76.5 -13.5t46.5 -23.5t1 -26.5t-59 -21.5q-43 -4 -58.5 0t-18.5 7.5t-2.5 3.5t-10.5 -11q-4 -2 -18.5 -6t-30 -10t-27 -14.5t-9.5 -19.5q5 -20 2 -34
t-8.5 -27.5t-11.5 -29t-7 -37.5t5 -54t25 -78q12 29 18 31t7.5 -12.5t-1 -39.5t-8 -50t-14 -43.5t-17.5 -20.5q-2 -4 2.5 1t10 11.5t10 11.5t2.5 1q-21 -43 -28 -80.5t-8 -66.5t1 -49.5t0 -29.5q-6 -15 -6 -18.5t6 -6t17 -8.5t28 -27q7 -9 8 -11.5t-1.5 -3.5t-6 -4t-5.5 -12
q-4 -26 5 -44t18 -32.5t11.5 -28t-14.5 -30.5zM-56 237q24 6 58.5 3t66.5 -8q37 -6 76 -16q62 -10 103 -2.5t65.5 13.5t34 -0.5t8.5 -43.5q0 -5 -13 -6t-31 -2t-35.5 -4t-25.5 -13l-120 -28q-2 -8 -4.5 -15t-13.5 -9t-35 3.5t-67 23.5z" />
    <glyph glyph-name="A" unicode="A" horiz-adv-x="337" 
d="M186 790q4 -8 6.5 -18t4 -28t1.5 -45.5t-2 -68.5q6 -17 13 -29.5t12.5 -28t6 -39.5t-6.5 -63q2 -28 2.5 -56t3.5 -52.5t9.5 -43.5t19.5 -28q0 -38 2.5 -69t4 -64t-0.5 -73t-11 -94l-60 105l-15 165l-35 30l-40 -110l-20 -100l-40 -115q-15 8 -17 29t17 66
q-30 28 -33 65.5t6.5 79t23.5 85.5t18 85l15 140q-6 13 -7 33t5 38t21 29t41 5q0 43 5 70t13 45t18 30t19 25zM151 565q-13 -44 -23 -79q-8 -30 -15 -56t-7 -30q6 15 11.5 23t12.5 6.5t16 -13.5t20 -36l-15 90v95z" />
    <glyph glyph-name="B" unicode="B" horiz-adv-x="490" 
d="M151 925q15 0 25.5 -8.5t14.5 -16.5q7 -17 -0.5 -32.5t-20 -31t-25 -31.5t-14.5 -35q-2 -13 2 -26.5t9.5 -27t11 -27.5t7.5 -29q2 -38 -3.5 -78t-14 -78.5t-17.5 -73t-15 -60.5q-2 -11 0 -19t4.5 -14t3.5 -11t-3 -11q-6 -19 -7.5 -39t0 -35.5t7.5 -23.5t15 -2
q26 17 57.5 30t59.5 22t47 13.5t21 4.5q6 -2 -1 2t-17 10.5t-18 14t-4 13.5q6 15 25.5 18.5t43 0t45.5 -13t31 -20.5q6 -6 1 -12.5t-12 -14t-12.5 -16t-1.5 -17.5q19 -47 20 -91.5t-18.5 -78.5t-62 -52.5t-109.5 -12.5q-24 2 -47 -7.5t-44.5 -13t-42 8.5t-41.5 57
q-4 9 -13.5 17t-19 16.5t-17.5 19t-7.5 24t11 31.5t36.5 42q0 23 2 44q2 18 4.5 37.5t8.5 33.5q7 32 14.5 75t12.5 88.5t7.5 89t0.5 77.5q0 15 -4.5 25t-10 17t-9 12t-1.5 11q9 28 15.5 55.5t13.5 53t16.5 47.5t24.5 39q4 4 7.5 7t7.5 3zM336 250q-4 0 -10.5 -6t-13 -14
t-11.5 -18t-5 -17q0 -8 2 -15.5t4 -13.5t2.5 -9.5t-3.5 -1.5q-8 2 -12 9t-8 15t-8.5 14.5t-11.5 6.5q-14 4 -30.5 -4.5t-32.5 -19.5q-18 -13 -37 -31q-11 -6 -20.5 -15t-12 -20t3 -24t24.5 -26q9 -6 24.5 -5.5t32.5 4t35 9.5t33 12q11 4 27 7t30.5 8t23 12t4.5 18
q-4 7 -9 22.5t-9 33t-6.5 34t-0.5 25.5q0 10 -5 10z" />
    <glyph glyph-name="C" unicode="C" horiz-adv-x="502" 
d="M16 175q-6 11 -2 26.5t13.5 34.5t21 41t21 45.5t13.5 48t-2 49.5q-9 34 -7 66.5t14.5 59.5t33.5 46.5t49 27.5q2 26 12 47.5t24 36.5t30 23t29 8q8 0 16.5 -7t8.5 -18q26 -2 49 -7q20 -5 37.5 -12.5t23.5 -20.5q7 -26 -6.5 -36t-37 -14t-50.5 -6.5t-46 -13.5
q-8 -2 -9.5 -8.5t-1.5 -15.5v-19t-4 -17q-5 -21 -17 -38.5t-25.5 -33.5t-25 -32t-16.5 -34.5t-0.5 -40.5t24.5 -51q-21 -45 -32 -77.5t-14.5 -54t-1.5 -33t8 -15.5q13 -9 21 -4.5t16 14.5t18.5 22t29.5 18l50 10q9 1 13 -7t6.5 -18t6.5 -20t13 -12t24.5 7t41.5 35
q7 9 10.5 -8.5t-2.5 -43t-24 -48.5t-54 -25q-15 -2 -23.5 -14.5t-17.5 -22t-22 -8.5t-37 25q-6 6 -11.5 -4.5t-10 -30.5t-9.5 -44t-11 -44.5t-12.5 -33t-15.5 -8.5q-6 2 -8 11t-4 22t-7 27t-16 25q-17 19 -19.5 39.5t0 37.5t4.5 29t-5 14q-10 2 -22 0t-21.5 -2t-15 4.5
t-3 21t15.5 47.5t41 84q6 7 -2.5 -2.5t-21.5 -22.5t-26.5 -23t-19.5 -2z" />
    <glyph glyph-name="D" unicode="D" horiz-adv-x="433" 
d="M236 935q10 0 10 -5l15 -130l-20 -135q24 -15 28 -39t-1 -51t-13.5 -55t-8.5 -50q23 -26 27 -69t-7 -96q-9 -53 -11.5 -110t-3.5 -105t-3.5 -79t-11.5 -31q-2 0 -3 1q-2 2 -2 4q-4 26 -8 45t-9 34t-12 28t-16 28q-4 -25 -7 -39.5t-8.5 -21.5t-14 -9t-23.5 -2.5
t-37.5 -1.5t-54.5 -6q-8 1 -16 5q-7 3 -13.5 7.5t-10.5 12.5q-8 9 -8 22.5t3 26.5q4 15 10 31q-15 32 -34 64.5t-26.5 65.5t4 65.5t56.5 64.5q13 15 18.5 36.5t14.5 39.5t26.5 26.5t55.5 -2.5l55 10l25 240q2 30 4 62t6 58t10 43t15 17zM121 410q-4 0 -10 -11.5t-12 -26.5
t-11 -30t-7 -22q0 -8 -5 -12t-11 -8t-11.5 -8.5t-7.5 -11.5q-4 -23 5 -42.5t20 -42.5q8 -8 12 -9t8 -1q11 0 20 7t20 18q7 7 13 9.5t11.5 3t10 2.5t10.5 10q2 6 4.5 16t4.5 21.5t2.5 21.5t-1.5 16q-6 6 -15 15.5t-18.5 22.5t-17 27.5t-9.5 29.5z" />
    <glyph glyph-name="E" unicode="E" horiz-adv-x="530" 
d="M336 535q30 6 43.5 -10t18.5 -41.5t6 -54t7 -49.5q-5 -8 -4.5 -16.5l1 -17t-2 -16t-14.5 -11.5t-35.5 -3.5t-64.5 6.5q-8 -11 -16.5 -23t-20.5 -19.5t-27 -7.5t-36 13l-55 -45l35 -195l95 -10l80 5l25 110l30 -15l30 50l-25 -165q-28 -19 -48 -30t-35 -15.5t-27 -1.5
t-25 12q-47 -19 -74 -27.5t-41 -10t-18.5 1t-6.5 6.5q-2 43 -12.5 83.5t-25.5 74t-32.5 59t-34.5 38.5q-6 4 -5.5 12t4 17.5t9.5 20.5t12 20q-2 30 -10.5 62t-9 62.5t14.5 57.5t60 48q-13 22 -6 33.5t26.5 17t46.5 6.5t53 3zM246 490q-23 0 -37 -4.5t-18 -15.5l-35 -35
l-50 -35l15 -55q28 -4 57.5 -8.5t56.5 -3t50.5 12.5t40.5 39q-17 7 -23.5 19t-7 25.5t3 28t7.5 27.5q-19 0 -34 2.5t-26 2.5z" />
    <glyph glyph-name="F" unicode="F" horiz-adv-x="533" 
d="M-56 237q15 4 34 4t39 -2q4 6 12.5 9t16.5 9t13 18t2 36l3 26q-5 0 -13 9q-17 19 -22.5 34.5t-5 29.5t6 27.5t11.5 28.5t6.5 32.5t-1 35.5t-3.5 36.5t-2 35.5q-28 43 -28 62t18 24.5t48.5 2t63 -6.5t62.5 -1t46 19q43 -3 76.5 -13.5t46.5 -23.5t1 -26.5t-59 -21.5
q-43 -4 -58.5 0t-18.5 7.5t-2.5 3.5t-10.5 -11q-4 -2 -18.5 -6t-30 -10t-27 -14.5t-9.5 -19.5q5 -20 2 -34t-8.5 -27.5t-11.5 -29t-7 -37.5t5 -54t25 -78q13 33 19.5 31t7 -22t-4.5 -50.5t-13 -55.5q39 -5 69.5 -2.5t53 7t38 9t24.5 2.5t13 -12.5t3 -34.5q0 -5 -13 -6
t-31 -2t-35.5 -4t-25.5 -13l-120 -28q-2 -10 -4 -15q-11 -54 -7.5 -90t1.5 -50q-6 -15 -6 -18.5t6 -6t17 -8.5t28 -27q7 -9 8 -11.5t-1.5 -3.5t-6 -4t-5.5 -12q-4 -26 5 -44t18 -32.5t11.5 -28t-14.5 -30.5q-8 -27 -23.5 -40t-31 -4t-25.5 43.5t-5 102.5q-11 30 -17.5 58
t-10 52.5t-6 46t-6.5 38.5q-11 19 -10 36.5t6 34.5q-19 6 -41 16z" />
    <glyph glyph-name="G" unicode="G" horiz-adv-x="525" 
d="M126 565q9 -2 13 -19t10.5 -36.5t20 -34t41.5 -10.5q13 0 27.5 -17t24 -39t10.5 -43.5t-12 -30.5q-11 -8 -7 -14.5t15 -14.5t23.5 -18t18.5 -23q6 -17 5 -37t-5 -39.5t-8.5 -37.5t-6.5 -31q19 -15 23.5 -42.5t9.5 -64t18 -80.5t49 -93q13 -17 4.5 -36t-27.5 -36.5
t-43.5 -33t-43.5 -24.5q-28 -15 -61 -25t-66.5 -12t-66.5 4t-61 23q-26 15 -39.5 44.5t-20.5 55.5q-2 19 -4 43t0 45.5t9.5 36.5t24.5 15q28 0 39.5 -11.5t11 -27.5t-10.5 -33t-25 -28q-18 -12 -14.5 -25.5t18.5 -24t37 -16.5t42 -4t34 13.5t13 36.5q-1 10 7.5 10.5t23 -3.5
t32.5 -10.5t34.5 -11t29.5 -4.5t18 9q15 21 13 47t-11.5 54.5t-21 58t-15.5 55.5q-28 -15 -44.5 -15t-28.5 8.5t-22 22t-25 24.5q-13 7 -31 9.5t-36.5 7t-36.5 16t-31 37.5q-2 19 7 41.5t21 42.5q14 23 32 46q4 37 0 64t-9.5 49.5t-8.5 44t3 47.5q15 53 38 74t42 21z
M161 425q-21 -2 -26.5 -18t-5 -38t3 -46t-1.5 -43q-2 -19 -11 -41t-15.5 -43t-6 -39t17.5 -27q11 -8 23.5 -5t24.5 11.5t21.5 20.5t15.5 23q7 15 8 31t-2 31.5t-7.5 31.5t-8.5 31q-2 15 -1 35.5t-0.5 39.5t-7.5 32t-21 13z" />
    <glyph glyph-name="H" unicode="H" horiz-adv-x="587" 
d="M86 975q13 0 13.5 -8.5t-3.5 -20.5t-7.5 -26t2.5 -25h5q19 0 23.5 -26t2.5 -64t-6.5 -83t-4.5 -82l20 -105q9 -2 18.5 -6t19.5 -7t20.5 -4.5t21.5 2.5q22 37 35 51.5t19 15t8 -10t3 -25t3 -29.5t8 -23t18.5 -6t35.5 22q30 -29 44 -46t19 -26.5t5 -15t2.5 -10t10.5 -11.5
t29 -21q11 -13 5 -26.5t-18 -30t-23 -37t-9 -46.5q-13 15 -16 17t-1 -2t7.5 -9.5t9.5 -5.5q8 -8 19 -22t26 -33q24 -30 33 -66.5t7.5 -68.5t-10.5 -53.5t-20 -21.5q-2 -4 -12 -5t-21 0.5t-18.5 5t-3.5 9.5q2 17 8 36t9 37t0.5 34.5t-17.5 27.5q-15 4 -27.5 15t-12.5 30
q-8 38 -17 75t2 75q-8 28 -23.5 53t-35 40.5t-41 18.5t-40.5 -12q-24 -2 -39.5 -27t-22 -64t-4.5 -87t11 -97q4 -24 11 -47.5t13.5 -44.5t11 -37.5t3.5 -27t-10 -13.5t-29 5q-9 6 -19.5 15.5t-21 12t-22 -6.5t-22.5 -41l-5 120l15 140l-10 10q-15 22 -15 50
q-11 15 -18.5 29.5t-11.5 25.5q-6 24 -2.5 58t9.5 66q7 37 18 76q2 32 -2 71.5t-9.5 80t-11 78t-7.5 65.5q-4 43 -6.5 67.5t-1 37.5t10 18.5t27.5 11.5q11 4 21 7t14 3z" />
    <glyph glyph-name="I" unicode="I" horiz-adv-x="297" 
d="M86 920l50 -20q15 -11 24.5 -26t6.5 -39t-21.5 -61.5t-59.5 -93.5q-20 14 -36 29q-14 13 -25.5 27.5t-13.5 28.5q-4 15 -0.5 34t9.5 36q6 19 16 40q-6 15 -14 30t-9.5 30t8.5 30t40 30zM136 535l-20 -160q14 -17 26 -34q11 -14 20.5 -31t13.5 -30q5 -25 2 -58.5t-9 -65.5
q-7 -37 -18 -76q-7 -41 -6 -73t5.5 -56t8.5 -40t2.5 -26t-12 -13.5t-35.5 -2.5q-21 0 -27.5 2.5t-6.5 13t4.5 31.5t6.5 59l-25 120q-8 2 -15 4.5t-9 14t4 35t25 66.5l-5 253q-5 -15 -11 -25q-5 -8 -12.5 -13.5t-16.5 0.5q-11 6 -16.5 18.5t-6 28t2 33.5t7.5 36q11 41 33 89
q9 -6 19.5 -15.5t21 -12t22 6.5t22.5 41z" />
    <glyph glyph-name="J" unicode="J" horiz-adv-x="447" 
d="M104 854q19 0 35 -13t20 -47l45 -15q17 -39 14.5 -57t-14.5 -27t-29.5 -15t-30.5 -21q-17 -12 -30 -18q-11 -5 -22 -5.5t-13 13.5q-3 14 -8 33.5t-10 39.5q-6 22 -12 47q-17 9 -17 23t10.5 27t27.5 23t34 12zM143 582q15 -13 24.5 -22t16.5 -25.5t14 -46.5t16 -84
q14 -16 26 -32q11 -14 20.5 -29.5t13.5 -28.5q5 -25 4.5 -64t-3.5 -77q-4 -44 -11 -93q4 -39 8.5 -73t7.5 -66.5t4 -65.5t-3 -70q-8 -51 -26.5 -88.5t-41.5 -60t-46.5 -28.5t-40.5 7q-13 9 -27 33t-28.5 65.5t-29.5 101t-30 140.5q7 21 21.5 13.5t30 -35.5t29 -72t19.5 -96
q2 -17 10.5 -26t21.5 -13t28 -3.5t30 2.5q1 65 -2 125q-1 25 -3 51.5t-5.5 51t-8.5 46t-11 36.5l-25 120l-15 7.5t-9 15t4 34t25 63.5q3 38 -2.5 55t-13.5 24t-16.5 9t-12 8.5t-0.5 22t18 50.5q-11 6 -16.5 14t-6 17t2 19t7.5 20q11 23 32 48z" />
    <glyph glyph-name="K" unicode="K" horiz-adv-x="542" 
d="M126 945q21 -13 25.5 -36.5t0 -52t-14 -60t-16.5 -61.5q15 -11 23.5 -26.5t10.5 -32.5t-3 -34t-16 -32q-9 -11 -13.5 -29.5t-4 -35.5t7.5 -28t20 -7q22 6 36.5 23t25.5 35t20.5 32.5t22.5 14.5l15 -20q31 54 53.5 87t38.5 52t27.5 27t20.5 11.5t17 5t18 7.5l-60 -100
q-17 -21 -36 -39.5t-35.5 -39t-27.5 -45t-11 -56.5q-2 -15 -17 -25.5t-33 -22.5t-33 -27.5t-17 -39.5q0 -29 13 -46.5t30.5 -30.5t36 -24.5t30.5 -28.5l40 -125q14 13 21 -2t10.5 -47t3.5 -76v-91t0.5 -92t4.5 -77q2 -15 -1.5 -24.5t-9.5 -11t-14 6.5t-15 29l-30 105
q-8 26 -17.5 61.5t-17.5 67.5q-10 37 -20 76q-8 34 -15.5 67t-18 63t-24 55.5t-32.5 44.5l-15 -30l-10 15q-4 -79 -22 -143.5t-33 -106.5q-2 -23 -6 -41q-4 -15 -11 -26.5t-18 -7.5q6 32 9.5 67.5t7.5 75t10.5 82.5t17.5 90l-20 40l20 140q1 9 -2 3.5t-9 -18t-13.5 -29
t-14.5 -30t-13 -20.5t-8 -1q-11 28 -11.5 56t4.5 55t13 53.5t14 50.5q3 10 6 35t7 57.5t8 69.5t9 72t10 64.5t10.5 46.5t11.5 19t13 -19l15 35v0z" />
    <glyph glyph-name="L" unicode="L" horiz-adv-x="462" 
d="M171 920q17 -17 14.5 -30.5t-11.5 -28t-18 -32.5t-5 -44q4 -19 17.5 -40.5t17.5 -44.5q2 -11 -5.5 -18.5t-16 -14.5t-14 -16t0.5 -24q2 -9 -5 -31t-11.5 -53.5t-2 -70.5t23.5 -82q2 -4 4.5 3.5l5.5 16.5l5.5 16.5t4.5 3.5q13 -17 13.5 -35.5t-6 -37.5t-17.5 -38.5
t-20 -38.5q-19 -46 -25 -78t-5 -54t7 -37.5t11.5 -29t8.5 -27.5t-2 -34q-2 -11 8 -9.5t23.5 7.5t26.5 12.5t17 4.5q11 -11 12 -21.5t6 -18.5t22 -14.5t60 -10.5q19 -19 35 -27.5t23 -15t1.5 -15t-29.5 -27.5q4 -32 -4 -42.5t-22.5 -6.5t-33 18t-35.5 31q-14 -23 -31.5 -20
t-34.5 15q-19 14 -39 40q-39 -15 -72 -23t-50 -2.5t-15 26.5t32 64q0 17 2 35.5t3.5 36.5t1 35.5t-6.5 32.5t-11.5 28.5t-6 27.5t5 29.5t22.5 34.5q11 11 15 9t3.5 -4.5t-3.5 2t-5 28.5q4 25 -2 37t-15 18t-17.5 9.5t-10.5 10.5t6.5 21.5t33.5 43.5q7 9 4 23t-7.5 30.5
t-6 34.5t9.5 37q4 17 6.5 38.5t6 46t10 52.5t17.5 58q0 53 11.5 87t25.5 55q17 24 38 38z" />
    <glyph glyph-name="M" unicode="M" 
d="M482 930q4 -24 -3 -63.5t-14 -80t-8 -75.5t14 -50q6 -35 7 -69t0 -69t-2.5 -70t0.5 -71q0 4 8 3.5t8 -7.5q2 -23 1 -55t-2 -66.5t-0.5 -66.5t6.5 -54q0 -11 3 -7.5t7 7.5q12 7 21 -0.5t5 -18.5q-2 -29 -7 -47t-11.5 -34.5t-12.5 -35t-10 -47.5q4 7 15.5 9t15.5 -9
q6 -14 7.5 -29t1.5 -31t-0.5 -32t1.5 -31q4 -35 4.5 -73.5t16.5 -73.5q4 -17 3.5 -36.5t-19.5 -26.5q-8 -2 -12 1t-5.5 8t-2 11.5t-0.5 11.5q-2 -4 -3.5 -9.5t-4 -10t-7 -7.5t-11.5 -1q-4 7 -4.5 14.5t0 15.5t1 16.5t-1.5 17.5q-4 42 -15.5 82.5t-15.5 81.5q-6 38 -16 75.5
t-20 75.5t-18.5 75.5t-12.5 75.5q2 5 1.5 11.5t-0.5 12.5t1.5 12t7.5 9q6 0 11 -4t8.5 -7.5t6.5 -4t5 6.5q0 59 -9 114.5t-17 114.5q-8 -52 -16.5 -103t-24.5 -103q-16 -48 -24 -96t-12 -96q-4 -24 -1.5 -45.5t6.5 -45.5q2 -5 0 -12t-6.5 -12.5t-12 -8t-17.5 0.5
q-10 7 -14.5 16t-6.5 19.5t-2.5 21t-2.5 21.5q0 10 -5.5 6.5t-9.5 -6.5q-16 -11 -32 -0.5t-20 27.5q-8 24 -7 48t5.5 48t10 48t7.5 48q-20 35 -33 74t-29 77q-10 17 -14 34.5t-6.5 35.5t-5.5 36t-10 35v-187q4 -76 2 -155.5t-18 -155.5q0 -7 -2 -14.5t-6.5 -13.5t-11 -8.5
t-16.5 0.5q-2 -17 -0.5 -33.5l3 -33t1.5 -33t-4 -33.5q-4 -10 -15 -6t-16 11q-11 -38 -12.5 -74.5t-12.5 -71.5q-2 -5 -3.5 -11.5t-3.5 -11.5t-6.5 -8t-12.5 -1q-12 11 -8.5 23.5t3.5 26.5q4 31 5.5 64t9.5 64q4 20 13.5 38.5t2.5 39.5q-16 3 -26 12.5t-10 23.5
q-2 22 -5.5 48.5t-5 53.5t0.5 52.5t10 46.5q2 12 15.5 7t28 -12.5t24.5 -11t4 12.5q15 150 0 301q-8 3 -14.5 10t-6.5 17q-8 38 -3.5 77t24.5 74q2 7 7.5 13t12.5 10t15 4.5t16 -4.5q2 -2 3 -6.5t2 -7.5t2.5 -2.5t3.5 7.5q11 7 20.5 -3t9.5 -20q8 14 14.5 25t6.5 25
q-4 11 -6 21.5t6 24.5q12 20 28 44t39 38q6 3 9 1t4 -6.5t0 -11t-3 -11.5q-4 -17 -12 -34t-16.5 -34.5t-14 -35.5t-3.5 -37q4 -21 11 -40.5t15 -39.5t16.5 -39.5t14.5 -40.5q12 -36 12.5 -72.5t-2.5 -73.5t-6 -73.5t1 -72.5q5 18 14 31.5t17 33t14.5 49.5t7.5 82q8 39 18 82
t22.5 86.5t26.5 85.5t29 80q10 20 14.5 41.5t6.5 43t2.5 44t2.5 44.5q2 10 5 21.5t9 21t15 15.5t23 6z" />
    <glyph glyph-name="N" unicode="N" 
d="M461 795q23 -19 36 -44t24 -51q8 -11 6 -22.5t-6 -22.5q7 -34 13.5 -69t7.5 -64.5t-5.5 -50t-25.5 -26.5q-15 -4 -14.5 -19t7 -34.5t14.5 -40.5t8 -36q2 -23 -6.5 -43.5t-19 -41.5t-20 -42t-9.5 -43q0 -26 5 -58t10.5 -64.5t8 -64.5t-3.5 -58q-4 -15 -20 -25.5t-35 0.5
q-11 6 -13.5 -9.5t-2 -38t1 -45.5t-5.5 -32q-19 -4 -29 10.5t-6 29.5q3 29 -8 55.5t-27.5 50.5t-34.5 45t-31.5 38.5t-17.5 31.5t9 24q17 13 12.5 32.5t-18 41t-30.5 43t-24 38.5q-19 11 -36.5 26.5t-30.5 38t-18.5 53.5t0.5 72q-8 -60 -16 -122.5t-4 -122.5q0 -9 2.5 -9.5
t6 2.5t8 7.5t8.5 4.5q7 -4 9.5 -10t2.5 -13t-1 -14t-1 -13q-11 -60 -26 -113t-19 -102q-4 -75 -11.5 -104t-16 -30.5t-16 15.5t-11.5 34q-4 13 -0.5 36.5t8.5 49.5t9.5 51.5t2.5 42.5q-4 24 -13 55t-18.5 59t-16.5 49t-7 27q-4 11 5 19.5t20 0.5q4 -4 7 -7.5t3 7.5
q4 24 3.5 43t-2 37t-2.5 37t1 43q4 4 10 4.5t10 0.5q0 25 -7.5 54t-17 58.5t-17 58.5t-7.5 54.5t10.5 46t38.5 33.5q-1 52 1 80t7 37t12 3t15 -20t17 -33.5t18 -36.5q30 -83 57.5 -163t42.5 -167q7 -30 31.5 -57t51.5 -53.5t48.5 -54.5t23.5 -60q4 28 17 51t22 48.5
t6.5 58.5t-30.5 82q-6 9 -3 18.5t10 18t16 15.5t17 13q-28 84 -32 134t6.5 70.5t31.5 13t44 -37.5q2 21 -3.5 40t-13.5 37.5t-16 37.5t-12 40q-4 8 -3.5 19t8.5 11h10z" />
    <glyph glyph-name="O" unicode="O" horiz-adv-x="392" 
d="M204 463q12 0 19.5 -9t4.5 -33q0 -20 16.5 -35.5t36.5 -30t38.5 -30t21.5 -34.5q2 -16 -3.5 -40.5t-11.5 -47.5q-8 -27 -17 -57q12 -12 14 -29.5t-2.5 -39.5t-12.5 -46t-16 -49q-11 -45 -32.5 -65t-39.5 -20q-11 0 -16 15t-12 33t-20.5 32t-40.5 11q-32 -1 -46 12t-21 38
t-11 59.5t-14 76.5q-5 25 -18.5 52t-19 53t4.5 51.5t52 47.5q28 17 54 29t47 31q24 25 45 25zM220 302q-6 0 -11.5 -8.5t-11 -20l-11 -23t-12 -17t-14 -2.5t-16.5 21q-8 13 -9 2t2 -32.5t7 -46.5t7 -39t2.5 -33.5t0.5 -37t7 -29t23 -9.5q39 0 50 34.5t-22 95.5
q-6 11 -4 24.5t7.5 27.5t12 27.5t10 25.5t1 21t-14.5 14q0 5 -4 5z" />
    <glyph glyph-name="P" unicode="P" horiz-adv-x="419" 
d="M46 535q2 -28 5.5 -48t9.5 -35.5t13.5 -28.5t16.5 -28q4 37 8 52.5t17 19.5t39.5 3t75.5 5q9 -1 17 -4q16 -5 28 -16q8 -11 7 -25t-5 -26q-4 -14 -12 -29q15 -34 34.5 -67.5t27.5 -67t-3.5 -66t-58.5 -64.5q-11 -15 -16.5 -36.5t-15 -39t-28 -25t-55.5 5.5l-50 -15
l-30 -240q0 -32 -1.5 -67t-6 -62t-13.5 -41t-24 -5l-10 130l15 135q-23 17 -25.5 42t3 52.5t14 55t8.5 50.5q-23 23 -29.5 65.5t4.5 99.5q9 52 11.5 109t3.5 103.5t3.5 77t11.5 30.5h10zM181 335q-8 0 -17.5 -8.5t-17.5 -16.5t-14.5 -10t-12 -3.5t-10 -4.5t-8.5 -12
q-4 -6 -7.5 -16t-5 -21.5t-1.5 -21.5t4 -16t12.5 -15.5t17.5 -22.5t17.5 -27.5t12.5 -29.5q2 -9 8.5 -0.5t13.5 24.5t12.5 34t5.5 27q0 7 5.5 11.5t12.5 9t13.5 10t8.5 14.5q0 23 -9.5 42t-20.5 38q-4 8 -8 11.5t-12 3.5z" />
    <glyph glyph-name="Q" unicode="Q" horiz-adv-x="647" 
d="M316 635q5 0 5 -5q17 0 23.5 -11.5t16.5 -29.5t31.5 -39t68.5 -40q11 -29 12 -52.5t-3.5 -45.5t-13.5 -43.5t-17 -45.5t-13.5 -53t-4.5 -65q4 -26 -5 -51t-20 -44q19 -15 34 -23.5t11 -16.5q-6 -15 1 -27.5t21 -23.5t31.5 -21.5t32.5 -21.5t24 -23.5t5 -27.5
q-30 4 -54.5 19.5t-50.5 30.5q-49 26 -68 48t-27 37q-30 -26 -60 -48t-45 -37q-21 -23 -39 -36t-31 -14t-20 12t-5 43q0 19 -10.5 31.5t-26.5 22.5t-34.5 18t-35 17.5t-29 21t-14.5 29.5q-2 23 5 59.5t16 72.5q11 41 24 88q-17 11 -19.5 35.5t2.5 56.5t14.5 70.5t17.5 77.5
q6 22 13.5 30.5t15.5 7.5t17 -8.5t18 -15.5t18 -14t18 -5q13 4 20 7t17.5 8.5t28.5 13.5t54 21q11 4 18.5 5t11.5 5zM271 535q-19 0 -40.5 -13t-42 -29.5t-38.5 -33.5t-29 -24q-2 -13 -1.5 -39.5t1.5 -55t1.5 -54t-1.5 -36.5q-4 -34 8.5 -64.5t31.5 -60.5q15 -15 30 -15
q11 0 25.5 10t29.5 25l10 10q-8 7 -22.5 19.5t-29 26.5t-25 28.5t-8.5 25.5q6 17 4 27.5t-5 17.5t-3 10t9 5l22 -18q9 -8 19.5 -16t18.5 -16q11 -15 20.5 -33.5t24.5 -26.5q22 -8 30 -15q6 9 15 27t18.5 38t17 38t9.5 27q-19 22 -29 54.5t-17 63t-14 55t-20 32.5q-4 4 -8 7
t-12 3z" />
    <glyph glyph-name="R" unicode="R" horiz-adv-x="430" 
d="M46 810q4 -28 7 -57t6.5 -56t8.5 -49.5t13 -37.5q8 34 25.5 75.5t59.5 94.5q7 -6 11.5 -14t10.5 -14t16.5 -8t31.5 6q9 -1 17 -4q16 -5 28 -16q5 -11 4.5 -25t-3.5 -26q-4 -14 -11 -29q15 -34 33.5 -67.5t26 -67t-3.5 -66t-56 -64.5l-115 -95q21 -24 40.5 -48.5t32 -48.5
t13.5 -47.5t-16 -45.5q16 -20 29 -38q11 -16 21.5 -34t14.5 -33t2 -35t-5 -42.5t-6 -46.5t-1 -46q2 -23 7.5 -42.5t11 -37.5t9.5 -34t2 -31q-4 -17 -11 -23.5t-15 -8.5q-9 -2 -19 2l-40 275q0 -2 -6 7.5t-15.5 26t-21 37.5t-22.5 44q-8 19 -15.5 36.5t-13.5 32t-9.5 25
t-1.5 16.5q2 30 -0.5 53t-5.5 39q-4 18 -9 33l-30 -240q0 -32 -1.5 -67t-6 -62t-13.5 -41t-24 -5l-10 130l15 135q-23 17 -25.5 42t2.5 52.5t12.5 55t5.5 50.5q-19 23 -25 65.5t5 99.5q9 52 11.5 109t3.5 103.5t3.5 77t11.5 30.5h5zM186 610q-8 0 -17.5 -8.5t-17.5 -16.5
t-10.5 -16t-4 -17t-3 -18.5t-7.5 -18.5q-2 -6 -8.5 -10t-12.5 -7.5t-9.5 -7.5t0.5 -10t12.5 -15.5t17.5 -22.5t17.5 -27.5t12.5 -29.5q2 -9 8.5 -0.5t13.5 24.5t12.5 34t5.5 27q0 7 -4 14.5l-8 15t-7 15t-1 15.5q2 11 9 19t13.5 15t10 14.5t-2.5 16.5q-4 8 -8 11.5t-12 3.5z
" />
    <glyph glyph-name="S" unicode="S" horiz-adv-x="563" 
d="M371 415q15 0 22.5 -7.5t22.5 -7.5q15 -2 18 -8.5t-1.5 -13.5t-15 -12.5t-21.5 -5.5q-9 -8 -19 -13q-8 -5 -17 -8.5t-14 -3.5q-30 7 -60 0q-9 0 -20 -3t-20.5 -7t-17.5 -7t-12 -3q-8 4 -21 6t-24 -6q-8 -6 -10 -9t-2.5 -6t-3 -6t-9.5 -9q-4 -2 -7 -0.5t-5.5 3t-5.5 3
t-7 -0.5q-8 -8 -12 -17t-8 -13q-2 -2 1.5 -9.5t10 -16.5t15.5 -17t18 -12q30 4 56 10t49 -5q4 -4 20.5 -5t24.5 -5q15 -8 24.5 -13.5t20.5 -16.5q11 -4 18.5 -14t11.5 -21q8 -8 6 -21t-6 -24q-4 -8 -12.5 -13.5t-12.5 -16.5q-4 -8 0 -17.5t0 -17.5q-8 -23 -25 -40t-40 -25
q-6 -2 -12 -0.5t-13 3t-13 3t-12 -0.5q-8 -4 -12 -10.5t-8 -13.5t-8.5 -13t-11.5 -8q-6 -2 -11.5 0t-11 5t-11 5t-11.5 0q-42 -11 -79 -18t-56 8q-2 2 -4 -1.5t-4 -8.5t-5 -8.5t-7 -1.5q-4 0 -2 8t2 12q2 6 5.5 15t7.5 18.5t8.5 17t8.5 9.5q9 2 18.5 -2.5t18.5 -9.5t17 -8.5
t16 0.5q4 4 5 9.5t5 5.5q6 6 12.5 7.5t13.5 1.5t14 -0.5t15 1.5q8 4 15 8t15 12q7 4 10.5 15t14.5 15q8 4 15 4.5t15 0.5q17 4 30.5 7t20.5 10t6 20.5t-12 37.5q-4 9 -8.5 13.5t-10.5 6.5t-14 2.5t-17 2.5q-15 4 -27.5 4t-27.5 -4q-23 -6 -41.5 -5t-37.5 9t-39.5 23
t-46.5 38q-4 4 3.5 16.5t11.5 23.5q8 19 16.5 39t23.5 31q8 8 20 7.5t20 7.5q11 8 17.5 22t17.5 18q8 4 15 4.5t15 0.5t15 -2.5t15 -2.5q11 4 18 15t22 15q9 4 19.5 2t20.5 -4t20.5 -3t19.5 5q30 22 45 15z" />
    <glyph glyph-name="T" unicode="T" horiz-adv-x="508" 
d="M261 955q17 -17 13 -42t-15 -53t-21.5 -57t-6.5 -53q2 -11 6 -15.5t9 -7t9 -7t6 -15.5t-3 -25.5t-10.5 -30.5t-9 -32.5t2.5 -31.5q7 -21 2 -45.5t-13.5 -46.5t-15.5 -38t-3 -20q9 -8 20 -5.5t20.5 7.5t17.5 10t12 3q5 -6 6.5 -13t-0.5 -13q-2 -7 -6 -14q-4 -11 4.5 -8.5
t24 5.5t35.5 1t41 -23q19 -19 34.5 -27.5t22 -15t1 -15t-27.5 -27.5q4 -32 -4 -43t-22.5 -7.5t-33 17.5t-35.5 33q-14 -23 -32.5 -20t-35.5 15q-20 14 -42 40q5 -48 4 -88q-1 -35 -7 -66.5t-22 -40.5q0 -19 3.5 -36.5t6.5 -33t2.5 -28.5t-7.5 -22q-14 -24 -19 -40t-6 -29
t-0.5 -26t-3 -29.5t-12.5 -39t-29 -56.5q-11 16 -15 24.5t-3.5 14t3.5 11t7 15.5t6.5 27.5t1.5 47.5q0 17 2 35.5t3.5 36.5t1 35.5t-6.5 32.5t-11.5 28.5t-6 27.5t5 29.5t22.5 34.5q9 11 12.5 24.5t3.5 30t-2 36.5t-4 44q-2 6 -12 7t-22 2.5t-23.5 5.5t-17.5 15
q-2 7 -12.5 11t-21.5 6.5t-19.5 6t-6.5 11.5q0 11 7.5 25t22.5 10q13 -6 19.5 -5t10.5 5.5t6.5 10t8.5 9.5q11 4 27.5 6.5t27.5 13.5q7 9 4 8l-7.5 -2.5t-6 2t9.5 22.5q4 19 6.5 41t6 47.5t10 53.5t17.5 58q0 51 13 96t29 80q18 40 43 74z" />
    <glyph glyph-name="U" unicode="U" horiz-adv-x="503" 
d="M391 565q8 0 14.5 -3t10.5 -7q9 -13 10.5 -27t-1.5 -28.5t-7.5 -29.5t-6.5 -30q-4 -13 -2.5 -25.5t3.5 -24t1.5 -23t-7.5 -22.5q-4 -11 -10.5 -20t-13 -17.5t-11.5 -17.5t-5 -20q4 -17 1.5 -22t-6 -7.5t-5 -6.5t4.5 -19q0 -8 9 -16.5t19 -17t16.5 -15.5t0.5 -11
q-23 -14 -31.5 -21t-10.5 -11.5t-1.5 -10t-4.5 -15t-18.5 -26.5t-43.5 -46q-23 20 -35.5 22t-19 -6t-8 -23l-3 -30t-3.5 -26t-9 -11t-20.5 14t-36.5 50q-13 7 -26 4t-26.5 -8.5t-26.5 -7.5t-26 7q-13 17 -17 36t-2.5 39.5t6 40.5t8.5 39q-15 -8 -28 1t-17 24q-4 30 0.5 62
t19.5 58q9 9 19 36.5t19.5 59t17.5 60t14 39.5q6 13 8.5 10.5t5.5 -9t7.5 -11t13.5 4.5v-5q-6 -28 -14.5 -54.5t-17 -53.5t-15 -54.5t-8.5 -57.5q0 -13 5 -11.5t12 11t14.5 25t13.5 30.5q16 2 17.5 -12.5t-3.5 -37.5t-12 -51t-7.5 -52.5t10 -40.5t40.5 -16q17 -15 38 -12
t41.5 18.5t36.5 40.5t24 53q-11 38 -3.5 75t18.5 75q0 15 12.5 28t27.5 17q15 11 17 27.5t-2 34.5t-9.5 37t-5.5 36q-4 8 7.5 11.5t22.5 3.5z" />
    <glyph glyph-name="V" unicode="V" horiz-adv-x="382" 
d="M266 640q4 0 10.5 -8t14.5 -27q7 -47 9 -81.5t1 -64t-3 -57.5t-2 -62q-11 -8 -19 -29t-12.5 -49t-6.5 -58t-2 -54q4 -24 -0.5 -38.5t-13 -23.5t-19.5 -14t-22 -9t-19.5 -9.5t-10.5 -15.5q2 -38 1.5 -63t-2.5 -41.5t-4.5 -25.5t-4.5 -15q-9 11 -16.5 11t-13 3.5t-8 17.5
t-2.5 53q-16 -4 -28 4.5t-20 23.5t-12 35t-5.5 39t0 34.5t5.5 23.5l-15 125q-4 36 -16.5 75t-21 76.5t-6 71t28.5 57.5q-15 42 -12.5 59.5t17.5 25.5l30 -100l20 -90l40 -340q0 17 8 23.5t19 11.5t21.5 11.5t16.5 23.5q7 21 9 52t1 63.5t-3 61t-2 43.5q9 19 17.5 12.5
t15 -17.5t11 -17.5t6.5 12.5q0 7 -3 16.5t-6 24.5t-4 37.5t3 56.5q4 53 11.5 89t18.5 36z" />
    <glyph glyph-name="W" unicode="W" horiz-adv-x="538" 
d="M441 930q19 0 26.5 -15t3.5 -30q-4 -13 -6.5 -38t-4.5 -52.5t-3 -53.5t-1 -41q-4 -26 -4.5 -55.5t-0.5 -59.5q0 -6 -1 -13.5t-4.5 -14t-9.5 -10.5t-15 -2q8 -30 19 -60t11 -60q2 -8 0.5 -15.5t-6 -12.5t-11 -6.5t-13.5 4.5q-4 -42 -2 -85t2 -85q0 -6 0.5 -13t0 -13.5
t-2.5 -11.5t-8 -7q0 13 -1 7.5t-1.5 -14t-1.5 -12t-1 13.5q5 0 5 5v-5q-4 -26 -4 -54.5t-11 -50.5q-6 -28 -3 -56t8.5 -56.5t9.5 -56.5t0 -56q-15 0 -26 7t-19 18q-8 21 -10 42t-2.5 43t-3 43t-9.5 42q-10 27 -20 44t-19.5 28.5t-18 20t-16.5 20t-14.5 28t-11.5 44.5
q4 -28 5.5 -61t0.5 -66t-5 -65t-11 -58q-8 -19 -11.5 -44t-4 -51t2 -51t8.5 -44q2 -4 2.5 -10.5t-1 -13t-5.5 -11.5t-11 -5q-23 15 -36 38.5t-24 46.5q-6 7 -5 14.5t2.5 15t2.5 15t-5 15.5q-8 -4 -14.5 -6.5t-10.5 1.5q-3 -4 -3 4.5t1 23t2 33t2 35.5t0.5 29t-2.5 15
q-9 11 -19 19.5t-18 17t-13 18.5t-5 25q0 9 -0.5 31.5t0.5 47t4 45t11 26.5q4 32 2.5 46.5t-5 26t-8.5 26t-9 46.5q-6 -2 -12 -6.5t-13 -8.5t-13 -5t-12 5q-15 30 -14.5 63t4.5 67q4 11 4 24t1 25t5 22.5t15 18.5q8 4 11 10.5t-1 14.5q-19 45 -20 90t-5 90q-2 7 0.5 13.5
t6.5 9.5t9 3t9 -6q9 -17 13.5 -34.5t7 -36t4 -37t5.5 -37.5q17 8 25 0q6 -13 6.5 -27t-1 -28t-3.5 -28t-2 -27q22 -8 30 -30q15 -75 15 -153v-157q0 -4 -0.5 -12.5t-1 -16.5t-0.5 -12.5t2 1.5q15 38 27.5 77.5t27.5 77.5q0 19 -3.5 38.5t-7 39.5t-4.5 40.5t5 41.5
q0 9 4.5 18.5t11.5 16.5t16 9t18 -4q4 11 6.5 30t13.5 30q6 7 14 8t15.5 -3.5t12.5 -12.5t3 -17q-8 -42 -3.5 -82.5t8.5 -82.5q11 -53 24 -103t21 -107q4 34 7 67.5t3 67.5q-2 -3 -0.5 5.5t6 23t10.5 32t11.5 34t9 29t3.5 16.5q0 32 -10.5 48t-22.5 29.5t-20 29.5t-2 48
q26 2 38 30.5t16.5 67t4 78.5t1.5 64q0 11 5.5 8t24.5 -3q2 -4 2.5 2.5t1 16t1.5 18t5 8.5z" />
    <glyph glyph-name="X" unicode="X" horiz-adv-x="623" 
d="M371 655q14 -25 14.5 -37t-6.5 -17.5t-18 -6t-21.5 -3t-16.5 -9t-2 -22.5q2 -11 -1.5 -18.5t-8.5 -13.5t-8.5 -12.5t-1.5 -15.5q2 -11 4 -16.5t5 -11t6.5 -14.5t9.5 -28q9 -26 1 -44.5t-20 -32t-22 -24t-4 -19.5q6 -14 9.5 -19.5t7 -8t8.5 -3.5t13.5 -5t22 -14t34.5 -30
q21 -21 22.5 -29.5t-4.5 -11.5t-14.5 -2.5t-8.5 -1.5q0 -17 12 -30t29 -24.5t35 -23.5t29 -27q24 -28 42.5 -44t26 -25.5t1.5 -17t-30 -18.5q2 -26 -5 -31t-20.5 7t-33 39t-41.5 65q-19 4 -43 33t-46 63q-26 40 -51 89q4 -40 2 -67q-1 -12 -3.5 -21.5t-7.5 -15t-12.5 -5.5
t-18.5 9q-2 -11 1.5 -28t6.5 -32t3.5 -24.5t-6.5 -5.5q-21 4 -30.5 -7t-15 -29.5t-9 -42.5t-10.5 -46q-4 -9 -7 -21t-8.5 -22t-13.5 -15.5t-21 -1.5q-11 30 -12.5 50t2.5 35q6 15 15 28t18 27t15.5 30.5t6.5 39.5q0 13 3 23.5t4.5 21t0.5 23.5t-8 32q-6 17 -12 33.5t-6.5 27
t7.5 13t31 -8.5q15 -8 16.5 0t-3 24.5t-12 38t-11.5 42.5q0 6 -12 21t-27.5 34.5t-30 39.5t-20.5 35q-4 9 -17.5 27t-28 36t-25.5 33t-9 19q0 8 10.5 5.5t29.5 -25.5q17 -24 25.5 -33.5t14 -12.5t9 -3t11.5 -6q7 -8 28 -28.5t44 -43t42.5 -41t25.5 -22.5q6 -3 6 3.5
t-2.5 16.5t-6.5 22.5t-5.5 22.5t1 16t12.5 4q6 7 5.5 21.5t0.5 29.5t6.5 27.5t22.5 16.5q2 35 15 54.5t27 28.5q17 11 38 12z" />
    <glyph glyph-name="Y" unicode="Y" horiz-adv-x="483" 
d="M39 642q29 -48 52 -95.5t52 -94.5q16 -9 24 -24t12.5 -31.5t7.5 -33.5t9 -31q16 -15 27 -32t14 -40q1 -6 5 -1.5t8.5 12.5t9 16.5t7.5 11.5q15 5 27.5 19t10.5 33q17 24 39 49.5t43 50.5q3 -17 -0.5 -32t-10 -29t-14.5 -28.5t-15 -30.5q-6 -21 -13 -43.5t-22 -38.5
q-1 -11 -7 -22.5t-5 -27.5q-2 -14 -10.5 -26.5t-17.5 -24.5t-17 -25t-10 -27q-2 -20 -8.5 -39t-19.5 -30q-11 -15 -10 -28t-3 -38l-50 -216q-4 -14 -16.5 -33.5t-28.5 -39.5t-33 -37.5t-30.5 -27t-20.5 -9t-2 17.5q6 21 14.5 41.5t17 40.5t16 41t10.5 43q3 11 8 18t9.5 13
t6 12t-2.5 15q-3 11 2.5 21t13.5 20t15.5 20t8.5 22q0 8 -6 13.5t-11 11.5t-6.5 13.5t7.5 19.5q4 7 9 13t7 12.5t-1 14t-15 17.5q-9 5 -5.5 12.5t13 16t21 17.5t16.5 18q6 13 5 29t-5 32.5t-7.5 33t-1.5 32.5q2 6 -1.5 5.5t-8.5 -2.5t-10.5 -2t-7.5 7q2 20 -4 43t-18 39
q-19 26 -31 54t-20 57q-7 26 -13.5 51.5t7.5 45.5q-2 23 -11 49t-16 52q2 5 1 13t3 9z" />
    <glyph glyph-name="Z" unicode="Z" horiz-adv-x="648" 
d="M48 800q15 0 36 -10.5t45 -25.5t50 -30.5t50.5 -25t47 -10t39.5 14.5q16 15 38 16t44 -7.5t39.5 -22t25.5 -26.5q8 8 12 4.5t2 -14.5q1 -8 -1.5 -11t-6 -4t-7.5 -1.5t-7 -4.5q-15 -23 -22 -51.5t-11.5 -58t-10.5 -58t-18 -51.5q-2 -6 -6.5 -4t-9.5 5t-10.5 5.5t-9.5 -1.5
q-13 -11 -18 -34.5t-12 -46.5q-4 -14 -6.5 -29.5t-6 -30.5t-9.5 -29t-16 -23q-17 -8 -32.5 -22.5t-24.5 -33.5q-5 -10 -8.5 -21.5t-8 -22t-10.5 -18t-16 -9.5q-6 2 -11 -1.5t-7 -9t-0.5 -12.5t6.5 -13q10 -11 26 -13.5t32 -6.5q18 -4 37 -9t38.5 -8.5t38.5 -4t38 5.5
q9 4 11 12t1 17.5t-3 19.5t-1 18q12 0 25 -11t26 -15q12 -11 24.5 -16.5t25 -9t25 -6.5t25.5 -9q7 -2 9.5 -8t1 -13t-5.5 -13.5t-8 -10.5q-9 0 -18.5 5.5l-19 11t-20 9t-20.5 -0.5q-12 -12 -26.5 -15t-29.5 -4t-30 -2.5t-29 -9.5q-25 -19 -56.5 -14.5t-63.5 20.5
q-15 11 -31 15.5t-32.5 4t-32.5 -4.5t-32 -10q-3 2 -7 0t-7.5 -4.5t-7 -3.5t-5.5 3q-2 19 -14.5 22t-23.5 3q7 15 21.5 19.5t25.5 16.5q10 25 20 51.5t21.5 52.5t25.5 49t33 40q7 7 15 11.5t16.5 8.5t16.5 8.5t15 12.5q7 28 11 57.5l8 59t9.5 57.5t16.5 55q10 42 36.5 66.5
t57.5 40.5q-22 8 -40.5 7t-40.5 3q-26 15 -53.5 20.5t-49.5 -10.5q-17 6 -33.5 5.5t-32 -3.5t-30.5 -8t-30 -9q-4 7 -2.5 16.5t4 19.5t3 20.5t-5.5 19.5q-7 8 -15.5 10.5t-18 1.5t-18 -4.5t-15.5 -7.5q0 23 5.5 47.5t15.5 44.5q3 4 8.5 4.5t10.5 0.5z" />
    <glyph glyph-name="b" unicode="b" horiz-adv-x="490" 
d="M151 925q15 0 25.5 -8.5t14.5 -16.5q7 -17 -0.5 -32.5t-20 -31t-25 -31.5t-14.5 -35q-2 -13 2 -26.5t9.5 -27t11 -27.5t7.5 -29q2 -38 -3.5 -78t-14 -78.5t-17.5 -73t-15 -60.5q-2 -11 0 -19t4.5 -14t3.5 -11t-3 -11q-6 -19 -7.5 -39t0 -35.5t7.5 -23.5t15 -2
q26 17 57.5 30t59.5 22t47 13.5t21 4.5q6 -2 -1 2t-17 10.5t-18 14t-4 13.5q6 15 25.5 18.5t43 0t45.5 -13t31 -20.5q6 -6 1 -12.5t-12 -14t-12.5 -16t-1.5 -17.5q19 -47 20 -91.5t-18.5 -78.5t-62 -52.5t-109.5 -12.5q-24 2 -47 -7.5t-44.5 -13t-42 8.5t-41.5 57
q-4 9 -13.5 17t-19 16.5t-17.5 19t-7.5 24t11 31.5t36.5 42q0 23 2 44q2 18 4.5 37.5t8.5 33.5q7 32 14.5 75t12.5 88.5t7.5 89t0.5 77.5q0 15 -4.5 25t-10 17t-9 12t-1.5 11q9 28 15.5 55.5t13.5 53t16.5 47.5t24.5 39q4 4 7.5 7t7.5 3zM336 250q-4 0 -10.5 -6t-13 -14
t-11.5 -18t-5 -17q0 -8 2 -15.5t4 -13.5t2.5 -9.5t-3.5 -1.5q-8 2 -12 9t-8 15t-8.5 14.5t-11.5 6.5q-14 4 -30.5 -4.5t-32.5 -19.5q-18 -13 -37 -31q-11 -6 -20.5 -15t-12 -20t3 -24t24.5 -26q9 -6 24.5 -5.5t32.5 4t35 9.5t33 12q11 4 27 7t30.5 8t23 12t4.5 18
q-4 7 -9 22.5t-9 33t-6.5 34t-0.5 25.5q0 10 -5 10z" />
    <glyph glyph-name="c" unicode="c" horiz-adv-x="502" 
d="M16 175q-6 11 -2 26.5t13.5 34.5t21 41t21 45.5t13.5 48t-2 49.5q-9 34 -7 66.5t14.5 59.5t33.5 46.5t49 27.5q2 26 12 47.5t24 36.5t30 23t29 8q8 0 16.5 -7t8.5 -18q26 -2 49 -7q20 -5 37.5 -12.5t23.5 -20.5q7 -26 -6.5 -36t-37 -14t-50.5 -6.5t-46 -13.5
q-8 -2 -9.5 -8.5t-1.5 -15.5v-19t-4 -17q-5 -21 -17 -38.5t-25.5 -33.5t-25 -32t-16.5 -34.5t-0.5 -40.5t24.5 -51q-21 -45 -32 -77.5t-14.5 -54t-1.5 -33t8 -15.5q13 -9 21 -4.5t16 14.5t18.5 22t29.5 18l50 10q9 1 13 -7t6.5 -18t6.5 -20t13 -12t24.5 7t41.5 35
q7 9 10.5 -8.5t-2.5 -43t-24 -48.5t-54 -25q-15 -2 -23.5 -14.5t-17.5 -22t-22 -8.5t-37 25q-6 6 -11.5 -4.5t-10 -30.5t-9.5 -44t-11 -44.5t-12.5 -33t-15.5 -8.5q-6 2 -8 11t-4 22t-7 27t-16 25q-17 19 -19.5 39.5t0 37.5t4.5 29t-5 14q-10 2 -22 0t-21.5 -2t-15 4.5
t-3 21t15.5 47.5t41 84q6 7 -2.5 -2.5t-21.5 -22.5t-26.5 -23t-19.5 -2z" />
    <glyph glyph-name="A.001" horiz-adv-x="833" 
 />
    <glyph glyph-name="zero" unicode="0" horiz-adv-x="568" 
d="M193 728q13 0 28 -8.5t33 -21t39 -27.5t45 -28q15 -7 33.5 -8.5t37 -4t35.5 -10.5t29 -29.5t18 -60t2 -102.5q-4 -60 -9 -119t-1 -116q0 -38 -3 -66.5t-10 -44t-18.5 -15.5t-28.5 21q-10 13 -23 9t-27.5 -16.5t-30 -29t-30.5 -29.5t-29 -18.5t-25 4.5q-8 4 -16 14.5
t-16.5 24.5t-17 30.5t-15.5 32.5q-18 38 -35 83q-17 -11 -32.5 1.5t-30.5 38.5t-30 61t-32 69q-15 32 -23 63t-10 59.5t0 52t8 40.5q5 12 13.5 13t19 -2.5l22.5 -7.5t24 0t24 18.5t22 48.5q15 45 28 62.5t32 17.5zM203 578q-19 6 -29 -5.5t-16 -29.5t-8.5 -37t-6.5 -28
q-9 -17 -14.5 -37.5t-5 -37.5t7.5 -26.5t22 -3.5q37 18 57 20t29.5 -6.5t10 -26.5t-2 -40t-6 -47t-2 -47t9.5 -40.5t29 -27.5q-13 -8 -6.5 1.5t22 24t34.5 28.5t30 16q13 4 24 3t17 2.5t6 15t-7 39.5q-8 28 -2.5 49t10.5 41.5t4 42.5t-22 52q-13 19 -15 24t-7 8.5t-21 12.5
t-57 35q-23 13 -38 18.5t-25 7t-15 0.5t-7 -1z" />
    <glyph glyph-name="one" unicode="1" horiz-adv-x="284" 
d="M58 -42l-40 150q1 19 2 37q1 16 0.5 32.5t-2.5 30.5q-6 26 -3.5 60.5t7.5 65.5q6 36 16 74q-20 37 -26.5 57.5t-5 30t9.5 11t17 1t16.5 0.5t8.5 10q4 34 1.5 62.5t-21.5 47.5q-28 32 -32.5 58.5t6 45t30.5 28.5t41 8q13 0 27 -12t23 -34t11.5 -53.5t-6.5 -70.5
q-4 -15 -2 -23t6.5 -14t9 -13t6.5 -20q2 -9 0 -24.5t-5.5 -31.5t-6.5 -29.5t-3 -19.5l50 75q7 -4 5 -23.5t-11.5 -50t-24.5 -69.5t-34 -82q24 -26 28 -45.5t-3.5 -34.5t-22 -27t-27.5 -23q-16 -21 -22 -38q-5 -14 -1.5 -25.5t28.5 -11.5q13 -1 21.5 -10.5t14 -24.5t8 -34
t2.5 -38q1 -46 -6 -103q-8 2 -13 -9.5t-10 -27t-10 -30t-12 -17.5t-16.5 10.5t-23.5 53.5z" />
    <glyph glyph-name="two" unicode="2" horiz-adv-x="604" 
d="M183 43q-24 -41 -39 -50t-26 -4.5t-22 11.5t-28 -2q-43 7 -59.5 25.5t-13.5 37.5t23 34.5t50 17.5q13 0 27 7t28.5 10.5t29.5 -1t30 -26.5q2 -4 4 1.5t5.5 15.5t8 22t12.5 21q6 6 14 7.5t14.5 3.5t9.5 6t-3 13q-11 21 -8 33t12 19.5t19 12t12 10.5q-11 20 -19.5 45.5
t-13 49t-5 42.5t5 25.5t17 -2.5t30.5 -40q19 44 24 68.5t1 37t-14.5 17t-22 9t-22.5 12t-16 26.5q-2 6 -17.5 8t-34.5 2t-37.5 -1.5t-25.5 -3.5q-9 -2 -16 -10.5t-15.5 -17t-20.5 -13.5t-33 1q-17 4 -30 -0.5t-20.5 -7t-9 0.5t4.5 22q4 19 20.5 40t35.5 39q22 21 49 41
q6 24 25.5 39t40.5 15t37.5 -17.5t16.5 -56.5q19 7 24.5 8t5.5 -2.5t-2 -10t2 -12.5t17 -11.5t43 -6.5q11 0 15 -11.5t10 -26.5t17.5 -30t37.5 -22q16 -4 22.5 -21.5t6 -42.5t-6 -53.5t-12.5 -55t-14 -47.5t-11 -30q-4 -11 -13.5 -25.5t-19 -28t-15.5 -24.5t-2 -17
q-6 -33 -7.5 -48t0 -19t3.5 -1t1.5 6.5t-4 4.5t-13.5 -8q0 -4 11.5 -11.5t29 -13.5t37.5 -6t37 11q32 22 47.5 22.5t21 -9t4.5 -22t-3 -16.5q5 -5 -1 -14.5t-19.5 -19t-33 -17t-41.5 -9.5t-45.5 4.5t-44.5 25.5q-4 -16 -12 -18t-18 4t-22.5 16t-24.5 17t-23 7.5t-20 -11.5z
" />
    <glyph glyph-name="three" unicode="3" horiz-adv-x="492" 
d="M178 818q23 0 39 -9.5t16 -35.5q28 7 49 3t33.5 -17.5t14.5 -35.5t-7 -50t-4.5 -43t12 -25t12 -18.5t-4.5 -23.5q-19 -24 -26.5 -37.5t-8 -25.5t4 -26.5t10.5 -40.5q0 -8 -2.5 -12.5t-2.5 -12.5q0 -4 2.5 -10t2.5 -10q15 -9 19 -11t5 -6.5t3 -17.5t13 -45q-6 -4 -3 -5.5
t9 -3.5t13 -5.5t11 -10.5q6 -10 2 -18.5t-13.5 -17.5t-21 -19t-21 -22t-13.5 -27.5t2 -35.5q9 -26 7 -47t-14.5 -34t-33.5 -17.5t-49 3.5q0 -26 -16.5 -37.5t-37.5 -11t-40.5 11t-25.5 27.5q-26 12 -49 24q-20 11 -38 23t-23 23q-8 22 6 23.5t38 -6.5t52 -19t49 -13q7 0 9 5
t1.5 11.5t-1.5 13t1 10.5q6 12 18.5 19t26 11.5t25.5 10t17 16t1 27.5t-23 46l15 15q-8 11 -13 32.5t-9.5 41t-10 31.5t-12.5 5q-13 -15 -27.5 -18.5t-29 -1.5t-28.5 6t-25 4q-30 2 -50 12t-23 22t13.5 23.5t59.5 17.5q11 -4 19 0.5t15 12t13.5 15.5t15 11t20 -2t27.5 -22
q6 -8 10.5 -1t10 20t11 29t13.5 27q-2 2 -4.5 10t-5.5 17.5t-5.5 17.5t-4.5 10q14 21 27.5 34t22 21.5t9 14.5t-11.5 12.5t-40 16.5t-77 26q-14 -1 -31.5 -4.5t-35 -6t-34 -4.5t-28 0.5t-16.5 9t0 20.5q19 11 21.5 19.5t-2 14t-10.5 8.5t-4 3q9 2 27 2.5t35 -0.5
q20 -1 43 -2q4 19 23 27t42 8z" />
    <glyph glyph-name="four" unicode="4" horiz-adv-x="634" 
d="M358 3q13 28 14.5 43t-3.5 21t-14 4.5t-18 -6t-15 -10t-4 -7.5q-21 2 -23 19t4 41t15.5 52.5t13.5 52.5l-45 65q-19 4 -38 11.5t-42 3.5q-35 -28 -49 -33t-18 1.5t-2 20.5t-0.5 24.5t-15.5 13.5t-45 -12q-27 21 -36 35.5t-8 24.5t7.5 17t10.5 13t0 13t-24 17
q-21 20 -24.5 29.5t1.5 14t14.5 6t13.5 5.5t-1 12.5t-29 27.5q5 8 5 24t-0.5 35t0 37.5t6 29.5t18 12.5t36.5 -13.5q-8 -23 -4.5 -42t29.5 -38q7 -2 8 -6.5t-1 -10t-6 -11.5t-6 -12q8 -23 11.5 -47.5t-11.5 -47.5q6 -19 20 -36t32 -28t38.5 -15t39.5 4q7 0 14.5 3t15 6.5
t15 5.5t15.5 0q19 -4 33 1.5t22 13.5q11 15 11 43t-11 62q12 -5 11 10t-8.5 39.5t-17 53t-13 49.5t2.5 29.5t30 -6.5l50 -25q2 -9 2.5 -31t1.5 -46.5t3 -46.5t8 -31q7 -9 14.5 -18.5t11.5 -18.5t2 -17.5t-13 -15.5q-8 -4 -6 -10t8 -12t14 -11t14 -7q7 4 12.5 2.5t10 -4.5
t9.5 -7t13 -6q34 -4 42 -7.5t2.5 -7.5t-17 -7.5t-17.5 -7.5q-8 -4 -19.5 -6.5t-24.5 -4.5t-26.5 -3t-24.5 -1q-8 -21 -9 -51.5t0.5 -64t3.5 -65.5t0 -54v-41t-3 -23t-11.5 -11t-25.5 -5z" />
    <glyph glyph-name="five" unicode="5" horiz-adv-x="578" 
d="M92 603q9 0 15.5 14t12 29.5t12 26.5t15.5 5q15 -2 23.5 -10t13.5 -17q5 -11 8 -23q13 -2 26 1t26 7t25 8t23 4q9 2 17 -1.5t14.5 -8.5t12 -8.5t11.5 -1.5q28 7 56.5 12t51 4t36 -9t11.5 -27q0 -6 -8 -18t-20.5 -24.5t-27.5 -23t-29.5 -13.5t-26.5 4t-18 30
q-4 13 -12 11.5t-18.5 -8.5t-23.5 -15t-26 -8l-110 15q-4 -4 -7 -8t-10 -6.5t-20.5 -2t-37.5 6.5l-10 -55q-15 -16 -20 -28q-5 -11 -1.5 -19t26.5 -8q26 -2 35.5 -27.5t10.5 -56.5q1 -36 -6 -81q-4 4 -7.5 -1.5t-7.5 -13.5q17 -6 27 3t20.5 17t24.5 9.5t38 -19.5
q11 -9 30 -10t38 -0.5t35 -1.5t22 -13q0 -4 -0.5 -10t-4.5 -10q4 -4 4.5 -7.5t0.5 -7.5q15 -8 19 -9t5 -4t3 -13t13 -34q-6 -4 -3 -5.5t9 -3t13 -3.5t11 -8q6 -7 2 -14t-13 -13.5t-20.5 -14t-20.5 -16.5t-12.5 -20.5t4.5 -26.5q9 -23 6 -39.5t-16 -26t-35 -12.5t-50 3
q0 -21 -16.5 -30t-37.5 -9t-40.5 8t-25.5 21q-27 10 -49 20q-19 8 -35.5 17.5t-20.5 17.5q-9 17 4 18t36 -4.5t51 -13.5t49 -10q7 0 9 3.5t1.5 8t-1.5 9.5t1 9q6 9 18.5 13.5t26 8t25.5 8t17 12.5t1 21.5t-23 36.5q4 4 7.5 5t7.5 5q-8 7 -13 23.5t-9 32t-8 25.5t-10 4
q-15 -11 -30 -14t-29 -1.5t-27 5t-24 5.5q-24 0 -42.5 4t-27.5 10t-8.5 13t13.5 13q0 4 -3 8t-7 12l-5 90l-40 115q3 15 4 29q1 12 0.5 26t-4.5 25q-6 19 -7.5 33.5t-0.5 25.5q1 12 3 21q2 6 11 2.5t22 -9.5t27 -12t25 -6z" />
    <glyph glyph-name="six" unicode="6" horiz-adv-x="482" 
d="M63 123q-9 24 -15.5 48t-8.5 45.5t1.5 40t12.5 31.5q-3 15 -10 22t-15.5 9.5t-16.5 3t-11 2.5t0.5 8t17.5 20l-5 110q-2 21 -8 36.5t-7.5 28.5t6.5 25t34 25q11 6 21.5 14.5t22 14t24 5t27.5 -13.5q19 7 37 11.5t33 3t25.5 -9.5t14.5 -25q4 -19 8.5 -25t12 -7.5t17 -2.5
t23.5 -9t32 -27.5t42 -58.5q9 -13 13 -28.5t2 -26t-9.5 -13.5t-20.5 8q-6 6 -13.5 15t-14 16t-10.5 9t-2 -5q6 -24 -0.5 -24.5t-16 9t-17.5 23t-6 17.5q4 7 -0.5 17t-13.5 16.5t-20.5 7t-20.5 -10.5q-8 -8 -17.5 -9.5t-19.5 0.5t-18.5 6t-14.5 8q-15 7 -31.5 4.5t-30 -11
t-22 -20.5t-6.5 -23l45 -85h50q36 19 55.5 14.5t32.5 -19.5t22.5 -34.5t24.5 -30.5q30 -13 39.5 -24.5t9 -23.5t-5.5 -24.5t-3 -27.5q2 -11 7.5 -24t8 -26t-2 -26t-23.5 -24q17 -32 15 -54t-15.5 -35t-35.5 -18t-44 -3q-17 0 -28 -5t-18 -9t-11 -3t-8 12q-21 16 -35 25.5
t-23 16t-15 14t-12.5 20t-14.5 32.5t-20 52zM258 43q8 0 12 3.5t8 11.5q8 23 13 42.5t-3 42.5q-8 15 -9.5 35t-5.5 35q-2 9 -17 19.5t-32 17.5t-30 8.5t-11 -5.5q11 -34 4 -41t-21.5 -2.5t-29 14t-18.5 9.5q-11 4 -8 -7.5t11 -28t16 -32.5t6 -22q-2 -4 0.5 -13t6.5 -19.5
t9 -19.5t9 -13q6 -9 11.5 -11.5t11.5 -2.5h12.5t14.5 -6q11 -8 21.5 -13.5t18.5 -1.5z" />
    <glyph glyph-name="seven" unicode="7" horiz-adv-x="477" 
d="M188 -142q-31 -48 -48 -63.5t-24 -8t-5.5 33t6.5 60t12 73t12.5 72t7 56.5t-5.5 27q0 4 -4 -3.5t-9 -16.5t-10 -16.5t-7 -3.5q-8 17 -3.5 35.5t15.5 37.5t25.5 38.5t27.5 38.5q31 46 45.5 78t19 55t2 38.5t-6 29t-4 27t8.5 32.5q6 11 -3 15t-22.5 4.5t-27 -0.5t-17.5 1
q-17 -2 -28.5 -15t-23.5 -21.5t-26.5 -4.5t-36.5 36q-15 19 -29 27.5t-19 15.5t2.5 16.5t35.5 30.5q4 30 14.5 40t24 7t28.5 -16.5t28 -30.5q19 20 40.5 22t40.5 -4q22 -7 44 -23q43 15 77 23t49.5 2.5t7.5 -26.5t-49 -64q-2 -17 -7.5 -35.5t-11 -36.5t-9.5 -35.5t-2 -32.5
t4.5 -28.5t0 -27.5t-12.5 -29.5t-32 -34.5q-13 -11 -20.5 -24.5t-11 -30t-5 -36.5t-3.5 -44q-10 -25 -7 -37t10.5 -18t15.5 -9.5t8 -10.5t-12.5 -21.5t-44.5 -43.5q-9 -9 -8.5 -22t2 -28.5t-1 -33t-17.5 -36.5z" />
    <glyph glyph-name="eight" unicode="8" horiz-adv-x="487" 
d="M148 758q19 -4 37 -11.5t33 -18.5q17 -11 30 -14.5t22 -5.5t13.5 -5.5t4.5 -14.5q12 -25 21 -40t14 -26t8 -20.5t4 -23.5t0 -35t-2 -55q0 -53 -12.5 -88.5t-42.5 -46.5v-5q32 -2 46.5 -12.5t21.5 -28.5t11.5 -42t15.5 -52q5 -12 15 -25.5t18.5 -27t14 -27t1 -26.5
t-21.5 -25.5t-52 -23.5q-30 -8 -64.5 -19t-60.5 -26q-38 -15 -61.5 -15t-23.5 30q0 15 -20.5 27t-45 22.5t-46 21.5t-23.5 24q-4 13 2 32t14 36q10 20 24 42q-15 7 -18 20t1 29t13.5 34t18.5 37q8 15 16 26t19 19q-15 9 -21 23.5t-9 30.5t-5.5 32t-9.5 29q-23 28 -27 43
t0.5 24t13.5 15.5t13 17.5t4.5 25.5t3.5 27t12 19.5t30 3q0 38 13.5 54t36.5 16zM173 678q-4 0 -7.5 -0.5t-7.5 -4.5q-15 -11 -28 -24t-17 -36q0 -15 -5.5 -32.5t-9.5 -32.5q0 -9 11 -27t24 -34t24 -24.5t11 0.5q1 23 6 30t12 4.5t15 -12t15.5 -20.5t13 -20.5t8.5 -11.5
q9 -9 10.5 2.5t0 29.5l-3 36t2.5 22q4 2 6 10.5t2.5 19t-0.5 21.5t-3 19q-2 9 -6.5 14t-10 8.5t-11.5 8.5t-12 14q-8 11 -15 21t-15 14q-4 4 -5 4.5t-5 0.5zM193 323q-23 -2 -38 -9.5t-20 -20t1 -30.5t27 -40q6 -8 3.5 -17t-9.5 -19t-15 -20t-12.5 -19.5t-2.5 -17t16 -12.5
q13 -4 24 9t23 25.5t25.5 17t32.5 -16.5q9 -9 9.5 -0.5t-4 25t-10.5 35.5t-10 30t-2.5 25.5t-2.5 29.5l-20 20q-4 0 -7.5 2.5t-7.5 2.5z" />
    <glyph glyph-name="nine" unicode="9" horiz-adv-x="507" 
d="M338 408q24 -30 34 -56.5t10 -50t-7.5 -44t-16.5 -39.5q-4 -9 2.5 -13.5t10.5 -10.5t0 -17.5t-28 -33.5q-6 -8 -7.5 -22.5t-1.5 -32.5t0.5 -36.5t-1.5 -33.5q-2 -24 0.5 -42.5t0.5 -34t-12.5 -29.5t-38.5 -29q-11 -6 -20.5 -12t-19.5 -9.5t-23 -4t-32 5.5q-21 4 -26 1.5
t-6.5 -6.5t-6.5 -6.5t-26 1.5q-44 6 -64.5 7t-27.5 2.5t-5 6.5t4 19t-1.5 40t-20.5 70q-6 15 -6 32.5t3.5 30.5t11 16.5t16.5 -9.5q6 -28 14.5 -34.5t14.5 -8t6.5 -8t-10.5 -34.5q-6 -8 -2 -19t13.5 -18.5t22.5 -7.5t26 15q7 7 16 16.5t18 17t17 11.5t14 0q13 -11 30 -9
t32 12t25 24.5t8 27.5q7 35 9 65q2 26 -2.5 49t-21.5 31q-9 4 -17.5 -1.5t-16.5 -14.5t-16 -18.5t-15 -15.5q-21 -16 -35 -17t-23.5 7t-16.5 22.5t-13 29.5t-13.5 27t-18.5 16q-30 7 -37 19t-3.5 26.5t10.5 31t5 33.5q-2 15 -9 38t-9 47t5 47t33 38q32 19 44.5 33t19 23.5
t13.5 14t28 4.5q17 -2 27 2t17 8t12.5 4t13.5 -9q15 -21 20.5 -35.5t7 -26t2.5 -22t6 -24t17 -32t37 -45.5zM153 503q-4 -4 -9.5 -8t-5.5 -12q-4 -13 6.5 -25.5t16.5 -24.5t-1.5 -24.5t-46.5 -25.5q-9 -2 -11 -12t0 -22.5t5.5 -25.5t5.5 -20q0 -9 12.5 -21t27.5 -20.5
t27.5 -10.5t12.5 7q6 41 14.5 56.5t18.5 13.5t19.5 -16.5t17.5 -33.5q6 -9 3.5 4t-6.5 33.5t-7.5 41t0.5 26.5t3.5 17t-3.5 22.5t-7 21.5t-8 14q-4 9 -8.5 11.5t-10 3t-12.5 1.5t-14 9q-11 8 -20 14t-20 6z" />
    <glyph glyph-name="f" unicode="f" horiz-adv-x="533" 
d="M-56 237q15 4 34 4t39 -2q4 6 12.5 9t16.5 9t13 18t2 36l3 26q-5 0 -13 9q-17 19 -22.5 34.5t-5 29.5t6 27.5t11.5 28.5t6.5 32.5t-1 35.5t-3.5 36.5t-2 35.5q-28 43 -28 62t18 24.5t48.5 2t63 -6.5t62.5 -1t46 19q43 -3 76.5 -13.5t46.5 -23.5t1 -26.5t-59 -21.5
q-43 -4 -58.5 0t-18.5 7.5t-2.5 3.5t-10.5 -11q-4 -2 -18.5 -6t-30 -10t-27 -14.5t-9.5 -19.5q5 -20 2 -34t-8.5 -27.5t-11.5 -29t-7 -37.5t5 -54t25 -78q13 33 19.5 31t7 -22t-4.5 -50.5t-13 -55.5q39 -5 69.5 -2.5t53 7t38 9t24.5 2.5t13 -12.5t3 -34.5q0 -5 -13 -6
t-31 -2t-35.5 -4t-25.5 -13l-120 -28q-2 -10 -4 -15q-11 -54 -7.5 -90t1.5 -50q-6 -15 -6 -18.5t6 -6t17 -8.5t28 -27q7 -9 8 -11.5t-1.5 -3.5t-6 -4t-5.5 -12q-4 -26 5 -44t18 -32.5t11.5 -28t-14.5 -30.5q-8 -27 -23.5 -40t-31 -4t-25.5 43.5t-5 102.5q-11 30 -17.5 58
t-10 52.5t-6 46t-6.5 38.5q-11 19 -10 36.5t6 34.5q-19 6 -41 16z" />
  </font>
</defs>
</svg>
